<svg width="180" height="60" viewBox="0 0 180 60" fill="none" xmlns="http://www.w3.org/2000/svg">
<g id="logo new 3">
<path id="Vector" d="M87.6336 15.6723C87.5582 16.9616 87.1969 18.218 86.5761 19.3505C85.9943 20.3987 85.2279 21.3331 84.3139 22.1087C83.417 22.8677 82.3896 23.4572 81.2818 23.8484C80.202 24.2393 79.0628 24.4411 77.9144 24.4449C76.5873 24.4545 75.2722 24.1925 74.05 23.675C71.7184 22.696 69.8474 20.8651 68.8182 18.5552C68.3048 17.4147 68.0419 16.1774 68.0472 14.9267C68.0496 13.723 68.2905 12.5318 68.7558 11.4218C69.222 10.2883 69.9012 9.25472 70.7567 8.37703C71.647 7.47086 72.701 6.74165 73.8628 6.22801C75.1306 5.66903 76.5037 5.38915 77.8891 5.40733C79.0158 5.39285 80.1358 5.58239 81.1951 5.96679C82.117 6.30138 82.9905 6.75696 83.7925 7.32156C84.4745 7.80011 85.0852 8.37304 85.6063 9.02321C86.0794 9.62885 86.4065 10.1633 86.5877 10.6265H84.4524C84.1635 10.1463 83.8173 9.70313 83.4213 9.30664C82.9806 8.8616 82.4827 8.47714 81.9407 8.16339C81.3546 7.82193 80.7283 7.55477 80.0761 7.36809C79.3735 7.16601 78.6455 7.06558 77.9144 7.06985C76.8072 7.0587 75.7102 7.28293 74.6962 7.72767C73.7431 8.14426 72.8784 8.73905 72.1485 9.48009C71.4394 10.204 70.8741 11.056 70.4828 11.9908C70.0891 12.9271 69.8863 13.9326 69.8863 14.9483C69.8863 15.9641 70.0891 16.9696 70.4828 17.9059C70.8732 18.8432 71.4442 19.6945 72.1633 20.4113C72.9032 21.1454 73.7761 21.7318 74.7353 22.1394C75.7642 22.577 76.8726 22.797 77.9906 22.7856C78.9203 22.7942 79.8434 22.6296 80.7128 22.3001C81.5147 21.9953 82.264 21.5671 82.9337 21.031C83.5565 20.5343 84.0975 19.943 84.537 19.2786C84.9352 18.6851 85.2332 18.0302 85.4191 17.3401H75.1573V15.6723H87.6336Z" fill="#365E99"/>
<path id="Vector_2" d="M90.4669 5.73096H100.533V7.3956H92.3061V14.0066H100.259V15.6723H92.3061V22.4567H100.533V24.1224H90.4669V5.73096Z" fill="#365E99"/>
<path id="Vector_3" d="M103.913 5.73096H106.398L116.657 20.9909H116.707V5.73096H118.555V24.1224H116.716L105.806 7.94131H105.756V24.1224H103.913V5.73096Z" fill="#365E99"/>
<path id="Vector_4" d="M122.303 5.73105H127.423C127.979 5.72748 128.535 5.75219 129.089 5.80508C129.52 5.84666 129.947 5.91732 130.369 6.0166C130.71 6.09687 131.043 6.20912 131.363 6.35185C131.643 6.47986 131.913 6.62943 132.171 6.79921C132.866 7.2631 133.438 7.89016 133.835 8.62566C134.261 9.42425 134.475 10.3184 134.457 11.2231C134.475 12.1278 134.261 13.022 133.835 13.8205C133.439 14.5584 132.867 15.1874 132.171 15.6523C131.914 15.8228 131.644 15.9724 131.363 16.0996C131.043 16.2428 130.71 16.3551 130.369 16.4349C129.947 16.5347 129.52 16.6053 129.089 16.6464C128.535 16.6997 127.979 16.7247 127.423 16.7215H124.145V24.1246H122.306L122.303 5.73105ZM124.143 15.0505H126.804C127.302 15.0505 127.72 15.0463 128.06 15.0378C128.4 15.0293 128.706 15.0128 128.979 14.9881C129.235 14.9668 129.489 14.9211 129.737 14.8517C129.99 14.7771 130.237 14.6859 130.477 14.5788C131.207 14.2467 131.745 13.7786 132.092 13.1743C132.435 12.581 132.615 11.9081 132.615 11.2231C132.615 10.5381 132.435 9.86517 132.092 9.27185C131.745 8.66761 131.207 8.19981 130.477 7.86843C130.237 7.76099 129.99 7.66949 129.737 7.59452C129.489 7.52555 129.235 7.47987 128.979 7.45809C128.706 7.43271 128.399 7.41684 128.06 7.40838C127.72 7.39992 127.302 7.39569 126.804 7.39569H124.145L124.143 15.0505Z" fill="#365E99"/>
<path id="Vector_5" d="M137.191 5.73096H139.03V22.4567H146.635V24.1224H137.191V5.73096Z" fill="#365E99"/>
<path id="Vector_6" d="M150.338 5.73096V17.1878C150.334 17.8205 150.384 18.4524 150.487 19.0766C150.561 19.5803 150.721 20.0676 150.96 20.5171C151.198 20.9766 151.518 21.3894 151.903 21.7354C152.217 22.0116 152.569 22.2416 152.948 22.4186C153.267 22.5675 153.606 22.6681 153.954 22.7168C154.489 22.8 155.034 22.8 155.57 22.7168C155.918 22.6681 156.258 22.5676 156.577 22.4186C156.955 22.2414 157.307 22.0113 157.62 21.7354C158.006 21.3894 158.325 20.9766 158.564 20.5171C158.803 20.0672 158.963 19.5796 159.037 19.0756C159.14 18.4513 159.189 17.8194 159.186 17.1867V5.73096H161.025V17.1878C161.025 18.7283 160.793 20.0041 160.329 21.0152C160.055 21.6528 159.66 22.2311 159.166 22.7179C158.733 23.1337 158.244 23.4852 157.711 23.7617C157.229 24.0085 156.715 24.1865 156.183 24.2905C155.249 24.4894 154.284 24.4894 153.35 24.2905C152.814 24.1854 152.295 24.0075 151.808 23.7617C151.273 23.4896 150.783 23.1376 150.355 22.7179C149.865 22.2291 149.472 21.6512 149.199 21.0152C148.734 20.0048 148.502 18.729 148.503 17.1878V5.73096H150.338Z" fill="#365E99"/>
<path id="Vector_7" d="M165.301 18.9773C165.351 20.1371 165.715 21.0607 166.394 21.7482C167.073 22.4356 167.984 22.7797 169.128 22.7804C169.604 22.7808 170.076 22.6922 170.52 22.5191C170.958 22.3503 171.359 22.097 171.7 21.7736C172.044 21.4436 172.323 21.0514 172.521 20.6176C172.732 20.1492 172.838 19.6402 172.832 19.1264C172.832 18.415 172.674 17.827 172.359 17.3624C172.062 16.9167 171.682 16.5325 171.24 16.2307C170.826 15.9494 170.375 15.7279 169.899 15.5729L168.736 15.1996C168.321 15.084 167.841 14.9349 167.294 14.7522C166.735 14.5663 166.206 14.2994 165.724 13.9601C165.212 13.597 164.783 13.1282 164.468 12.5852C164.128 12.0127 163.958 11.2724 163.959 10.3643C163.952 9.68491 164.087 9.01157 164.356 8.38769C164.611 7.79733 164.983 7.26484 165.45 6.82247C165.925 6.37608 166.482 6.02592 167.09 5.79132C167.74 5.53888 168.431 5.41219 169.128 5.41799C169.835 5.41086 170.537 5.54609 171.19 5.81565C171.798 6.06253 172.349 6.43106 172.809 6.89861C173.256 7.36178 173.611 7.90595 173.853 8.50191C174.102 9.10573 174.228 9.75268 174.226 10.4056H172.386C172.389 9.95528 172.299 9.50928 172.122 9.09522C171.956 8.70056 171.715 8.34152 171.413 8.03763C171.113 7.7381 170.759 7.49773 170.37 7.32905C169.978 7.1569 169.555 7.06829 169.127 7.06888C168.641 7.06011 168.158 7.15304 167.71 7.34174C167.315 7.51148 166.96 7.761 166.666 8.07465C166.389 8.37585 166.17 8.72583 166.02 9.10685C165.873 9.47719 165.797 9.87184 165.797 10.2702C165.797 10.8342 165.913 11.2982 166.145 11.662C166.386 12.0361 166.709 12.3507 167.089 12.5821C167.526 12.8487 167.993 13.0618 168.481 13.2166C169.011 13.3901 169.575 13.56 170.173 13.7264C171.282 14.0246 172.144 14.4388 172.758 14.969C173.372 15.4992 173.818 16.0443 174.098 16.6041C174.352 17.0756 174.521 17.5889 174.595 18.1196C174.644 18.5751 174.669 18.8775 174.669 19.027V19.0524C174.671 19.7524 174.532 20.4456 174.259 21.0904C173.991 21.7291 173.603 22.3109 173.116 22.8047C172.614 23.3107 172.019 23.7156 171.364 23.9977C170.658 24.3012 169.896 24.4536 169.127 24.445C168.491 24.4392 167.86 24.343 167.251 24.1595C166.592 23.9669 165.976 23.6507 165.436 23.2277C164.858 22.7682 164.384 22.1915 164.044 21.5356C163.672 20.8397 163.477 19.9862 163.46 18.9752L165.301 18.9773Z" fill="#365E99"/>
<path id="Vector_8" d="M90.0777 29.4517H95.4714C95.6397 29.4517 95.8011 29.5185 95.9201 29.6375C96.0391 29.7565 96.106 29.9179 96.106 30.0862V54.0934C96.106 54.2617 96.0391 54.4231 95.9201 54.5421C95.8011 54.6611 95.6397 54.728 95.4714 54.728H90.2892C90.121 54.728 89.9596 54.6611 89.8406 54.5421C89.7216 54.4231 89.6547 54.2617 89.6547 54.0934V41.4997L84.7126 54.3261C84.6665 54.4457 84.5852 54.5485 84.4795 54.621C84.3737 54.6935 84.2485 54.7322 84.1204 54.7322H80.6303C80.5026 54.7322 80.3778 54.6936 80.2723 54.6215C80.1668 54.5495 80.0856 54.4472 80.0391 54.3282L74.8919 41.1274V54.0976C74.8919 54.2659 74.825 54.4273 74.706 54.5463C74.587 54.6653 74.4256 54.7322 74.2573 54.7322H69.5479C69.3796 54.7322 69.2182 54.6653 69.0992 54.5463C68.9802 54.4273 68.9133 54.2659 68.9133 54.0976V30.0904C68.9133 29.9221 68.9802 29.7607 69.0992 29.6417C69.2182 29.5227 69.3796 29.4559 69.5479 29.4559H75.0357C75.1626 29.456 75.2866 29.4941 75.3916 29.5654C75.4966 29.6366 75.5778 29.7378 75.6248 29.8557L82.4568 47.0203L89.4897 29.8493C89.5369 29.732 89.6181 29.6314 89.7229 29.5606C89.8277 29.4897 89.9512 29.4518 90.0777 29.4517Z" fill="#F86800"/>
<path id="Vector_9" d="M113.854 35.2726H106.605V39.503H113.69C113.873 39.503 114.049 39.5756 114.178 39.7049C114.307 39.8342 114.38 40.0096 114.38 40.1925V44.1606C114.38 44.3434 114.307 44.5188 114.178 44.6481C114.049 44.7775 113.873 44.8501 113.69 44.8501H106.605V48.9112H113.852C114.035 48.9112 114.211 48.9839 114.34 49.1132C114.469 49.2425 114.542 49.4179 114.542 49.6008V54.0426C114.542 54.2255 114.469 54.4009 114.34 54.5302C114.211 54.6595 114.035 54.7322 113.852 54.7322H100.508C100.417 54.7323 100.327 54.7146 100.243 54.68C100.16 54.6454 100.084 54.5946 100.019 54.5306C99.9552 54.4666 99.9044 54.3905 99.8696 54.3068C99.8349 54.223 99.817 54.1333 99.817 54.0426V30.1412C99.817 30.0506 99.8349 29.9608 99.8696 29.8771C99.9044 29.7934 99.9552 29.7173 100.019 29.6533C100.084 29.5892 100.16 29.5384 100.243 29.5038C100.327 29.4693 100.417 29.4515 100.508 29.4517H113.854C114.037 29.4517 114.213 29.5243 114.342 29.6536C114.471 29.7829 114.544 29.9583 114.544 30.1412V34.5831C114.544 34.7659 114.471 34.9413 114.342 35.0706C114.213 35.2 114.037 35.2726 113.854 35.2726Z" fill="#F86800"/>
<path id="Vector_10" d="M140.922 42.075C140.922 49.6558 135.619 54.7322 127.479 54.7322H118.273C118.09 54.7322 117.915 54.6595 117.785 54.5302C117.656 54.4009 117.583 54.2255 117.583 54.0426V30.1412C117.583 29.9583 117.656 29.7829 117.785 29.6536C117.915 29.5243 118.09 29.4517 118.273 29.4517H127.074C135.619 29.4517 140.922 34.4942 140.922 42.075ZM127.074 48.5728C131.939 48.5728 133.964 45.9288 133.964 42.075C133.964 38.2508 131.938 35.6449 127.074 35.6449H124.372V48.5728H127.074Z" fill="#F86800"/>
<path id="Vector_11" d="M143.792 54.0425V30.1073C143.792 29.9244 143.865 29.749 143.994 29.6197C144.124 29.4904 144.299 29.4177 144.482 29.4177H149.892C150.074 29.4177 150.25 29.4904 150.379 29.6197C150.508 29.749 150.581 29.9244 150.581 30.1073V54.0425C150.581 54.2254 150.508 54.4008 150.379 54.5301C150.25 54.6594 150.074 54.7321 149.892 54.7321H144.482C144.299 54.7321 144.124 54.6594 143.994 54.5301C143.865 54.4008 143.792 54.2254 143.792 54.0425Z" fill="#F86800"/>
<path id="Vector_12" d="M171.624 54.2859L170.377 50.9756H160.919L159.732 54.2764C159.684 54.41 159.596 54.5254 159.48 54.607C159.364 54.6886 159.225 54.7323 159.083 54.7322H153.256C153.143 54.7322 153.032 54.7047 152.933 54.652C152.833 54.5993 152.748 54.523 152.685 54.4298C152.622 54.3367 152.582 54.2294 152.57 54.1175C152.558 54.0056 152.573 53.8924 152.615 53.7878L162.133 29.8863C162.184 29.758 162.272 29.6479 162.387 29.5703C162.501 29.4928 162.636 29.4515 162.774 29.4517H168.493C168.63 29.4526 168.764 29.4942 168.877 29.5712C168.99 29.6483 169.077 29.7572 169.128 29.8842L178.709 53.7856C178.75 53.8904 178.766 54.0037 178.754 54.1159C178.742 54.228 178.702 54.3354 178.639 54.4288C178.576 54.5221 178.491 54.5986 178.391 54.6515C178.292 54.7044 178.181 54.7321 178.068 54.7322H172.269C172.129 54.7322 171.992 54.6894 171.877 54.6097C171.762 54.53 171.673 54.417 171.624 54.2859ZM162.943 45.3577H168.212L165.512 38.2846L162.943 45.3577Z" fill="#F86800"/>
<path id="Vector_13" d="M47.401 2.91041C41.6498 1.1252 35.8215 0.16597 29.9297 0.181834C24.0347 0.16597 18.2063 1.1252 12.4552 2.91041C4.51272 5.37246 -0.229493 12.5154 0.116337 19.8212C0.358524 24.923 1.89731 29.8471 3.81789 34.6115C7.0192 42.5434 11.8608 49.3278 18.0403 55.1773C18.9554 56.0455 19.9634 56.8102 21.046 57.4575C22.4078 58.2608 23.8701 58.8799 25.3947 59.2988C28.3482 60.1787 31.4942 60.1787 34.4477 59.2988C35.9724 58.8801 37.4347 58.261 38.7965 57.4575C39.8791 56.8102 40.887 56.0455 41.8021 55.1773C47.9816 49.3278 52.8232 42.5381 56.0245 34.6115C57.9483 29.8524 59.4871 24.923 59.7261 19.8212C60.0783 12.5154 55.3361 5.37246 47.401 2.91041Z" fill="url(#paint0_radial_413_612)"/>
<path id="Vector_14" d="M44.6661 6.55696C39.817 5.02981 34.9003 4.21229 29.9297 4.23027C24.959 4.21758 20.0423 5.03509 15.1922 6.55696C12.3716 7.44216 9.64201 9.01479 7.47185 12.086C5.10074 15.4354 4.88923 18.9804 4.7951 20.9814C4.58358 25.474 5.94047 28.6393 7.92027 33.5963C10.6129 40.3511 14.7004 46.1424 19.908 51.131C20.6796 51.8715 21.5308 52.5241 22.4462 53.077C23.5933 53.7614 24.8268 54.2893 26.1139 54.6464C28.6033 55.3981 31.2592 55.3981 33.7486 54.6464C35.0355 54.2887 36.269 53.7609 37.4163 53.077C38.3316 52.5239 39.1828 51.8713 39.9545 51.131C45.1589 46.1424 49.2422 40.3511 51.9423 33.591C53.5646 29.5267 54.8623 25.327 55.0664 20.9761C55.3583 14.7448 51.3585 8.65204 44.6661 6.55696Z" fill="url(#paint1_radial_413_612)"/>
<path id="Vector_15" d="M41.4997 39.3167C41.4989 39.5469 41.4509 39.7744 41.3586 39.9852C41.2664 40.196 41.1319 40.3857 40.9635 40.5425C39.9764 41.4654 38.6562 42.2286 37.0028 42.8322C35.0287 43.5513 32.8652 43.9112 30.5124 43.912C26.8948 43.912 24.004 42.7673 21.8402 40.478C19.6764 38.1887 18.5187 35.0032 18.3671 30.9216L18.3491 28.449C18.3491 25.6358 18.83 23.1794 19.7917 21.0797C20.7534 18.9801 22.1282 17.3644 23.9163 16.2328C25.7071 15.1047 27.7786 14.5389 30.1306 14.5354C33.572 14.5354 36.2445 15.3497 38.1482 16.9784C40.0518 18.6071 41.1619 21.0374 41.4785 24.2694H35.0664C34.8393 22.6732 34.3458 21.5349 33.5858 20.8545C32.8257 20.1741 31.7505 19.8339 30.3601 19.8339C28.6905 19.8339 27.3999 20.5665 26.4883 22.0316C25.5767 23.4967 25.1156 25.59 25.105 28.3115V30.0354C25.105 32.8866 25.576 35.0286 26.5179 36.4613C27.4599 37.8939 28.9433 38.6103 30.9682 38.6103C32.7006 38.6103 33.9908 38.2112 34.839 37.4131V32.9818H30.2089V28.2523H41.4997V39.3167Z" fill="url(#paint2_radial_413_612)"/>
</g>
<defs>
<radialGradient id="paint0_radial_413_612" cx="0" cy="0" r="1" gradientUnits="userSpaceOnUse" gradientTransform="translate(3.14526 6.9525) scale(43.2045)">
<stop stop-color="#FDB370"/>
<stop offset="0.2" stop-color="#FB984B"/>
<stop offset="0.42" stop-color="#FA7F2B"/>
<stop offset="0.63" stop-color="#F96D13"/>
<stop offset="0.83" stop-color="#F86305"/>
<stop offset="1" stop-color="#F85F00"/>
</radialGradient>
<radialGradient id="paint1_radial_413_612" cx="0" cy="0" r="1" gradientUnits="userSpaceOnUse" gradientTransform="translate(9.35224 9.18717) scale(36.1684 36.1684)">
<stop stop-color="#7FABFF"/>
<stop offset="0.1" stop-color="#6D97E5"/>
<stop offset="0.23" stop-color="#5983CA"/>
<stop offset="0.38" stop-color="#4972B4"/>
<stop offset="0.54" stop-color="#3E67A5"/>
<stop offset="0.73" stop-color="#38609C"/>
<stop offset="1" stop-color="#365E99"/>
</radialGradient>
<radialGradient id="paint2_radial_413_612" cx="0" cy="0" r="1" gradientUnits="userSpaceOnUse" gradientTransform="translate(21.7683 17.7949) scale(18.1598)">
<stop stop-color="#FDB370"/>
<stop offset="0.2" stop-color="#FB984B"/>
<stop offset="0.42" stop-color="#FA7F2B"/>
<stop offset="0.63" stop-color="#F96D13"/>
<stop offset="0.83" stop-color="#F86305"/>
<stop offset="1" stop-color="#F85F00"/>
</radialGradient>
</defs>
</svg>
