<svg width="18" height="18" viewBox="0 0 18 18" fill="none" xmlns="http://www.w3.org/2000/svg">
<g id="Frame" clip-path="url(#clip0_294_1541)">
<path id="Vector" d="M0 3.86956C0.0924431 3.57903 0.14967 3.26648 0.286134 2.99796C0.801174 1.98548 1.64197 1.44843 2.7821 1.41322C3.07263 1.40441 3.36757 1.41322 3.68892 1.41322C3.68892 1.1711 3.68452 0.933393 3.68892 0.695683C3.69773 0.34792 3.94864 0.0573846 4.2832 0.00896204C4.63096 -0.0438626 4.96552 0.15423 5.05796 0.493188C5.09318 0.62525 5.08877 0.770517 5.09318 0.906981C5.09758 1.06546 5.09318 1.22393 5.09318 1.39561C6.14527 1.39561 7.18856 1.39561 8.25825 1.39561C8.25825 1.14909 8.24945 0.902579 8.25825 0.651662C8.27146 0.290694 8.58401 0.00455998 8.95818 0.00455998C9.33236 0.00455998 9.6449 0.290694 9.65811 0.651662C9.66691 0.836548 9.66251 1.02584 9.66251 1.21512C9.66251 1.27235 9.66251 1.32958 9.66251 1.40001C10.7278 1.40001 11.7843 1.40001 12.8628 1.40001C12.8628 1.28996 12.8628 1.17991 12.8628 1.06986C12.8628 0.321508 13.0741 0.00455998 13.5715 0.00455998C14.0646 0.00455998 14.2715 0.321508 14.2715 1.07866C14.2715 1.18431 14.2715 1.28556 14.2715 1.41322C14.5664 1.41322 14.8437 1.41762 15.1211 1.41322C16.5033 1.378 17.6742 2.36846 17.934 3.64066C17.9692 3.81674 17.9912 3.99722 17.9912 4.17771C17.9956 5.52033 17.9956 6.85856 17.9956 8.20119C17.9956 8.62818 17.6963 8.93633 17.2913 8.93193C16.8863 8.93193 16.5913 8.62378 16.5913 8.19678C16.5913 6.90698 16.5913 5.62158 16.5913 4.33178C16.5913 3.99282 16.5165 3.67147 16.3096 3.39414C16.0279 3.01997 15.6493 2.84388 15.1915 2.82628C14.8922 2.81307 14.5972 2.82187 14.2715 2.82187C14.2715 3.07719 14.2803 3.32811 14.2715 3.57463C14.2583 3.9444 13.9369 4.23053 13.5583 4.22613C13.1886 4.22173 12.8848 3.93119 12.8716 3.56582C12.8672 3.38534 12.8716 3.20485 12.8716 3.01997C12.8716 2.96274 12.8716 2.90551 12.8716 2.83508C11.8063 2.83508 10.7498 2.83508 9.67131 2.83508C9.67131 3.05518 9.67131 3.27529 9.67131 3.49539C9.66691 3.92239 9.37197 4.23053 8.96698 4.22613C8.562 4.22613 8.26706 3.91799 8.26706 3.49099C8.26706 3.27529 8.26706 3.05959 8.26706 2.83508C7.21057 2.83508 6.16288 2.83508 5.10198 2.83508C5.10198 3.05959 5.10198 3.28409 5.10198 3.50419C5.09758 3.92679 4.79824 4.23493 4.39325 4.23053C3.99707 4.22613 3.70213 3.92239 3.69773 3.50419C3.69773 3.28409 3.69773 3.06399 3.69773 2.79986C3.27953 2.82628 2.87014 2.79986 2.48276 2.8835C1.80044 3.02437 1.40866 3.58783 1.40866 4.31417C1.40426 5.55995 1.40866 6.81014 1.40866 8.05592C1.40866 10.3934 1.40866 12.7309 1.40866 15.0684C1.40866 15.6803 1.63756 16.1733 2.20983 16.4374C2.42993 16.5387 2.69406 16.5871 2.93617 16.5871C4.68819 16.6003 6.44021 16.5915 8.19222 16.5959C8.49597 16.5959 8.71607 16.7456 8.83933 17.0229C8.95378 17.2738 8.90095 17.5952 8.69846 17.7845C8.60602 17.8725 8.47836 17.9297 8.36831 18.0002C6.40059 18.0002 4.43287 18.0002 2.46075 18.0002C2.43434 17.987 2.41233 17.9693 2.38591 17.9649C1.43507 17.8065 0.735143 17.2958 0.303742 16.4418C0.158474 16.1645 0.0968452 15.8432 0 15.5394C0 11.648 0 7.76098 0 3.86956Z" fill="#1D62C8"/>
<path id="Vector_2" d="M13.2898 18.0001C13.1005 17.9561 12.9068 17.9253 12.7175 17.8724C11.036 17.4014 9.98386 16.3053 9.58327 14.6149C9.15187 12.7881 10.1379 10.7587 11.8415 9.95315C13.4615 9.1872 15.0198 9.33687 16.4153 10.4506C17.6831 11.4631 18.2069 12.8321 17.934 14.4432C17.6522 16.116 16.653 17.2209 15.0638 17.7932C14.8261 17.8769 14.5664 17.9121 14.3155 17.9693C14.2759 17.9781 14.2406 17.9957 14.2054 18.0045C13.8973 18.0001 13.5935 18.0001 13.2898 18.0001ZM16.5913 13.7389C16.5825 12.1806 15.2971 10.8996 13.7432 10.8996C12.1849 10.8996 10.8863 12.2026 10.8951 13.7565C10.9039 15.3149 12.1893 16.5959 13.7432 16.5959C15.3059 16.5915 16.6046 15.2928 16.5913 13.7389Z" fill="#1D62C8"/>
<path id="Vector_3" d="M4.39325 8.08667C4.00147 8.08667 3.69332 7.77853 3.69332 7.38675C3.69332 6.98616 4.00587 6.67802 4.40645 6.68242C4.79383 6.68682 5.09758 6.99937 5.09758 7.39115C5.09317 7.78293 4.78503 8.08667 4.39325 8.08667Z" fill="#1D62C8"/>
<path id="Vector_4" d="M7.44752 8.08643C7.05574 8.08643 6.7476 7.77389 6.752 7.3821C6.752 6.98152 7.06455 6.67777 7.46953 6.68218C7.85692 6.68658 8.16066 6.99912 8.15626 7.39531C8.15185 7.78269 7.83931 8.09083 7.44752 8.08643Z" fill="#1D62C8"/>
<path id="Vector_5" d="M10.5129 6.68237C10.9047 6.68237 11.2128 6.99052 11.2173 7.3779C11.2173 7.77848 10.9091 8.08663 10.5041 8.08663C10.1123 8.08223 9.80859 7.77408 9.80859 7.3823C9.813 6.99052 10.1211 6.68237 10.5129 6.68237Z" fill="#1D62C8"/>
<path id="Vector_6" d="M14.2715 7.3867C14.2715 7.77848 13.9633 8.08663 13.5715 8.08663C13.1709 8.08663 12.8628 7.77408 12.8672 7.3735C12.8716 6.98611 13.1842 6.68237 13.5759 6.68237C13.9677 6.68678 14.2759 6.99492 14.2715 7.3867Z" fill="#1D62C8"/>
<path id="Vector_7" d="M4.38938 9.7417C4.78116 9.7417 5.09371 10.0454 5.09811 10.4372C5.10251 10.8378 4.78997 11.1504 4.38938 11.1504C3.9976 11.1504 3.68945 10.8378 3.68945 10.446C3.69386 10.0498 3.9976 9.7417 4.38938 9.7417Z" fill="#1D62C8"/>
<path id="Vector_8" d="M7.45188 9.7417C7.84366 9.7417 8.15181 10.0498 8.15621 10.4372C8.15621 10.8378 7.84806 11.146 7.44748 11.146C7.0557 11.1416 6.75195 10.8334 6.75195 10.4416C6.75195 10.0498 7.0601 9.7417 7.45188 9.7417Z" fill="#1D62C8"/>
<path id="Vector_9" d="M4.38938 12.7969C4.78116 12.7969 5.09371 13.1006 5.09811 13.4924C5.10251 13.893 4.78997 14.2055 4.38938 14.2055C3.9976 14.2055 3.68945 13.893 3.68945 13.5012C3.69386 13.1094 3.9976 12.8013 4.38938 12.7969Z" fill="#1D62C8"/>
<path id="Vector_10" d="M7.45238 14.2055C7.06059 14.2055 6.75245 13.8974 6.74805 13.5056C6.74805 13.105 7.05619 12.7969 7.46118 12.7969C7.85296 12.8013 8.1567 13.1094 8.1567 13.5056C8.1523 13.8974 7.84416 14.2055 7.45238 14.2055Z" fill="#1D62C8"/>
<path id="Vector_11" d="M14.4481 13.0433C14.5801 13.0433 14.6858 13.0389 14.7914 13.0433C15.1744 13.0521 15.4694 13.3602 15.4694 13.7476C15.4694 14.1306 15.17 14.4387 14.787 14.4475C14.4349 14.4519 14.0827 14.4519 13.7349 14.4475C13.3476 14.4431 13.0526 14.1438 13.0482 13.752C13.0438 13.2678 13.0438 12.7792 13.0482 12.2949C13.0526 11.8987 13.3608 11.5994 13.757 11.6038C14.1399 11.6038 14.4481 11.9031 14.4525 12.2905C14.4525 12.5326 14.4481 12.7792 14.4481 13.0433Z" fill="#1D62C8"/>
</g>
<defs>
<clipPath id="clip0_294_1541">
<rect width="18" height="18" fill="white"/>
</clipPath>
</defs>
</svg>
