<svg width="18" height="18" viewBox="0 0 18 18" fill="none" xmlns="http://www.w3.org/2000/svg">
<g id="Frame" clip-path="url(#clip0_294_2992)">
<path id="Vector" d="M0 3.86969C0.0924431 3.57915 0.14967 3.2666 0.286134 2.99808C0.801174 1.98561 1.64197 1.44856 2.7821 1.41334C3.07263 1.40454 3.36757 1.41334 3.68892 1.41334C3.68892 1.17123 3.68452 0.933516 3.68892 0.695805C3.69773 0.348042 3.94864 0.0575067 4.2832 0.00908411C4.63096 -0.0437405 4.96552 0.154352 5.05796 0.49331C5.09318 0.625372 5.08877 0.77064 5.09318 0.907103C5.09758 1.06558 5.09318 1.22405 5.09318 1.39573C6.14527 1.39573 7.18856 1.39573 8.25825 1.39573C8.25825 1.14922 8.24945 0.902701 8.25825 0.651784C8.27146 0.290816 8.58401 0.00468205 8.95818 0.00468205C9.33236 0.00468205 9.6449 0.290816 9.65811 0.651784C9.66691 0.83667 9.66251 1.02596 9.66251 1.21525C9.66251 1.27247 9.66251 1.3297 9.66251 1.40013C10.7278 1.40013 11.7843 1.40013 12.8628 1.40013C12.8628 1.29008 12.8628 1.18003 12.8628 1.06998C12.8628 0.32163 13.0741 0.00468205 13.5715 0.00468205C14.0646 0.00468205 14.2715 0.32163 14.2715 1.07878C14.2715 1.18443 14.2715 1.28568 14.2715 1.41334C14.5664 1.41334 14.8437 1.41774 15.1211 1.41334C16.5033 1.37812 17.6742 2.36859 17.934 3.64078C17.9692 3.81686 17.9912 3.99735 17.9912 4.17783C17.9956 5.52046 17.9956 6.85868 17.9956 8.20131C17.9956 8.62831 17.6963 8.93645 17.2913 8.93205C16.8863 8.93205 16.5913 8.6239 16.5913 8.19691C16.5913 6.9071 16.5913 5.6217 16.5913 4.3319C16.5913 3.99294 16.5165 3.67159 16.3096 3.39426C16.0279 3.02009 15.6493 2.84401 15.1915 2.8264C14.8922 2.81319 14.5972 2.822 14.2715 2.822C14.2715 3.07732 14.2803 3.32823 14.2715 3.57475C14.2583 3.94452 13.9369 4.23065 13.5583 4.22625C13.1886 4.22185 12.8848 3.93131 12.8716 3.56594C12.8672 3.38546 12.8716 3.20498 12.8716 3.02009C12.8716 2.96286 12.8716 2.90564 12.8716 2.8352C11.8063 2.8352 10.7498 2.8352 9.67131 2.8352C9.67131 3.05531 9.67131 3.27541 9.67131 3.49551C9.66691 3.92251 9.37197 4.23065 8.96698 4.22625C8.562 4.22625 8.26706 3.91811 8.26706 3.49111C8.26706 3.27541 8.26706 3.05971 8.26706 2.8352C7.21057 2.8352 6.16288 2.8352 5.10198 2.8352C5.10198 3.05971 5.10198 3.28421 5.10198 3.50432C5.09758 3.92691 4.79824 4.23506 4.39325 4.23065C3.99707 4.22625 3.70213 3.92251 3.69773 3.50432C3.69773 3.28421 3.69773 3.06411 3.69773 2.79999C3.27953 2.8264 2.87014 2.79999 2.48276 2.88363C1.80044 3.02449 1.40866 3.58795 1.40866 4.31429C1.40426 5.56007 1.40866 6.81026 1.40866 8.05604C1.40866 10.3935 1.40866 12.731 1.40866 15.0685C1.40866 15.6804 1.63756 16.1734 2.20983 16.4376C2.42993 16.5388 2.69406 16.5872 2.93617 16.5872C4.68819 16.6004 6.44021 16.5916 8.19222 16.596C8.49597 16.596 8.71607 16.7457 8.83933 17.023C8.95378 17.2739 8.90095 17.5953 8.69846 17.7846C8.60602 17.8726 8.47836 17.9298 8.36831 18.0003C6.40059 18.0003 4.43287 18.0003 2.46075 18.0003C2.43434 17.9871 2.41233 17.9695 2.38591 17.9651C1.43507 17.8066 0.735143 17.296 0.303742 16.442C0.158474 16.1646 0.0968452 15.8433 0 15.5395C0 11.6481 0 7.7611 0 3.86969Z" fill="#1D62C8"/>
<path id="Vector_2" d="M13.29 18C13.1008 17.956 12.9071 17.9252 12.7178 17.8723C11.0362 17.4013 9.9841 16.3052 9.58351 14.6148C9.15211 12.788 10.1382 10.7586 11.8418 9.95303C13.4617 9.18707 15.02 9.33674 16.4155 10.4505C17.6833 11.4629 18.2071 12.832 17.9342 14.4431C17.6525 16.1159 16.6532 17.2208 15.0641 17.7931C14.8264 17.8767 14.5666 17.9119 14.3157 17.9692C14.2761 17.978 14.2409 17.9956 14.2057 18.0044C13.8975 18 13.5938 18 13.29 18ZM16.5916 13.7388C16.5828 12.1805 15.2974 10.8995 13.7435 10.8995C12.1851 10.8995 10.8865 12.2025 10.8953 13.7564C10.9041 15.3147 12.1895 16.5957 13.7435 16.5957C15.3062 16.5913 16.6048 15.2927 16.5916 13.7388Z" fill="#1D62C8"/>
<path id="Vector_3" d="M4.39329 8.08655C4.0015 8.08655 3.69336 7.77841 3.69336 7.38663C3.69336 6.98604 4.00591 6.6779 4.40649 6.6823C4.79387 6.6867 5.09761 6.99925 5.09761 7.39103C5.09321 7.78281 4.78507 8.08655 4.39329 8.08655Z" fill="#1D62C8"/>
<path id="Vector_4" d="M7.4485 8.08655C7.05672 8.08655 6.74857 7.77401 6.75298 7.38222C6.75298 6.98164 7.06552 6.6779 7.47051 6.6823C7.85789 6.6867 8.16163 6.99925 8.15723 7.39543C8.15283 7.78281 7.84028 8.09096 7.4485 8.08655Z" fill="#1D62C8"/>
<path id="Vector_5" d="M10.5119 6.68237C10.9037 6.68237 11.2119 6.99052 11.2163 7.3779C11.2163 7.77848 10.9081 8.08663 10.5031 8.08663C10.1114 8.08223 9.80762 7.77408 9.80762 7.3823C9.81202 6.99052 10.1202 6.68237 10.5119 6.68237Z" fill="#1D62C8"/>
<path id="Vector_6" d="M14.2715 7.3867C14.2715 7.77848 13.9633 8.08663 13.5716 8.08663C13.171 8.08663 12.8628 7.77408 12.8672 7.3735C12.8716 6.98611 13.1842 6.68237 13.576 6.68237C13.9677 6.68678 14.2759 6.99492 14.2715 7.3867Z" fill="#1D62C8"/>
<path id="Vector_7" d="M4.38889 9.7417C4.78067 9.7417 5.09322 10.0454 5.09762 10.4372C5.10202 10.8378 4.78948 11.1504 4.38889 11.1504C3.99711 11.1504 3.68896 10.8378 3.68896 10.446C3.69337 10.0498 3.99711 9.7417 4.38889 9.7417Z" fill="#1D62C8"/>
<path id="Vector_8" d="M7.45286 9.7417C7.84464 9.7417 8.15278 10.0498 8.15719 10.4372C8.15719 10.8378 7.84904 11.146 7.44845 11.146C7.05667 11.1416 6.75293 10.8334 6.75293 10.4416C6.75293 10.0498 7.06107 9.7417 7.45286 9.7417Z" fill="#1D62C8"/>
<path id="Vector_9" d="M4.38889 12.7968C4.78067 12.7968 5.09322 13.1005 5.09762 13.4923C5.10202 13.8929 4.78948 14.2054 4.38889 14.2054C3.99711 14.2054 3.68896 13.8929 3.68896 13.5011C3.69337 13.1093 3.99711 12.8012 4.38889 12.7968Z" fill="#1D62C8"/>
<path id="Vector_10" d="M7.45286 14.2054C7.06108 14.2054 6.75294 13.8973 6.74854 13.5055C6.74854 13.1049 7.05668 12.7968 7.46167 12.7968C7.85345 12.8012 8.15719 13.1093 8.15719 13.5055C8.15279 13.8973 7.84465 14.2054 7.45286 14.2054Z" fill="#1D62C8"/>
<path id="Vector_11" d="M14.4476 13.0433C14.5797 13.0433 14.6853 13.0389 14.7909 13.0433C15.1739 13.0521 15.4689 13.3602 15.4689 13.7476C15.4689 14.1306 15.1695 14.4387 14.7865 14.4475C14.4344 14.4519 14.0822 14.4519 13.7345 14.4475C13.3471 14.4431 13.0521 14.1438 13.0477 13.752C13.0433 13.2678 13.0433 12.7792 13.0477 12.2949C13.0521 11.8987 13.3603 11.5994 13.7565 11.6038C14.1394 11.6038 14.4476 11.9031 14.452 12.2905C14.452 12.5326 14.4476 12.7792 14.4476 13.0433Z" fill="#1D62C8"/>
</g>
<defs>
<clipPath id="clip0_294_2992">
<rect width="18" height="18" fill="white"/>
</clipPath>
</defs>
</svg>
