<svg width="60" height="60" viewBox="0 0 60 60" fill="none" xmlns="http://www.w3.org/2000/svg">
<g id="Frame" clip-path="url(#clip0_294_800)">
<path id="Vector" d="M29.8406 60C13.4292 60 0 46.5521 0 30.1032C0 13.4292 13.3729 -0.0187363 29.9156 1.95952e-05C46.552 0.0187755 59.8875 13.3917 59.9062 30.0282C59.9062 46.6271 46.4958 59.9813 29.8406 60ZM15.0985 30.0094C16.6364 28.4714 18.1182 27.046 19.5624 25.583C20.5002 24.6265 20.5002 23.276 19.6186 22.3758C18.7371 21.4755 17.3679 21.4755 16.4114 22.3945C14.4045 24.3826 12.3976 26.3895 10.4095 28.4152C9.47171 29.3717 9.47171 30.6659 10.4095 31.6224C12.3976 33.648 14.3857 35.6549 16.4114 37.6243C16.7677 37.9806 17.3304 38.2057 17.8181 38.2995C18.7183 38.4683 19.5811 37.9244 20.0125 37.0991C20.4626 36.2176 20.3314 35.2423 19.5999 34.5108C18.1557 33.0103 16.6552 31.5474 15.0985 30.0094ZM44.7702 30.0094C43.2135 31.5661 41.713 33.0103 40.2688 34.4921C39.4061 35.3736 39.4248 36.724 40.2501 37.6055C41.0941 38.487 42.4633 38.5808 43.3448 37.7368C45.4642 35.6737 47.5461 33.5918 49.5905 31.4724C50.397 30.6471 50.397 29.3529 49.5905 28.5277C47.5274 26.3895 45.4454 24.2701 43.2885 22.2257C42.1257 21.1191 40.2126 21.7193 39.7249 23.276C39.4436 24.1951 39.7062 24.9828 40.3814 25.6393C41.8443 27.0835 43.2698 28.5089 44.7702 30.0094ZM24.664 36.9491C24.739 38.0369 25.4517 38.9372 26.4645 39.1435C27.5899 39.3686 28.6027 38.8622 29.0716 37.7368C31.0222 33.1791 32.9728 28.6215 34.9234 24.0638C35.4861 22.7509 34.9984 21.4567 33.7981 20.9503C32.5977 20.4439 31.3598 21.0066 30.7971 22.3383C28.8653 26.8584 26.9334 31.3598 25.0016 35.88C24.8515 36.2363 24.7765 36.5927 24.664 36.9491Z" fill="url(#paint0_linear_294_800)"/>
</g>
<defs>
<linearGradient id="paint0_linear_294_800" x1="26.8329" y1="63.3421" x2="29.9983" y2="12.2494" gradientUnits="userSpaceOnUse">
<stop stop-color="#1D62C8"/>
<stop offset="1" stop-color="#80D5FF"/>
</linearGradient>
<clipPath id="clip0_294_800">
<rect width="59.8875" height="60" fill="white"/>
</clipPath>
</defs>
</svg>
