<svg width="60" height="60" viewBox="0 0 60 60" fill="none" xmlns="http://www.w3.org/2000/svg">
<g id="Frame" clip-path="url(#clip0_294_767)">
<path id="Vector" d="M28.1138 0C29.366 0 30.6183 0 31.8706 0C32.8724 0.125228 33.8899 0.21915 34.8761 0.391338C41.1218 1.45578 46.5693 4.14819 51.0149 8.65641C58.2155 15.9196 61.1271 24.7013 59.5774 34.7978C58.372 42.6872 54.4117 49.0895 48.0564 53.8951C41.5288 58.8416 34.1247 60.7514 26.0162 59.7026C20.0052 58.9512 14.7143 56.4936 10.1748 52.4707C4.96217 47.8529 1.70624 42.0924 0.469606 35.2205C0.26611 34.1091 0.156535 32.982 0 31.8706C0 30.6183 0 29.366 0 28.1138C0.0939212 27.378 0.172189 26.6423 0.26611 25.9223C1.20532 19.3791 3.96034 13.7282 8.59379 9.01644C13.0864 4.4456 18.5025 1.58101 24.8265 0.469606C25.9223 0.26611 27.018 0.156535 28.1138 0ZM30.0078 10.0339C19.019 10.0026 10.0496 18.9408 10.0183 29.9765C9.98696 40.9653 18.9408 49.9348 29.9765 49.9661C40.9653 49.9974 49.9348 41.0436 49.9661 30.0078C49.9974 19.019 41.0436 10.0496 30.0078 10.0339Z" fill="url(#paint0_linear_294_767)"/>
<path id="Vector_2" d="M24.2786 34.156C24.2786 31.3697 24.2786 28.6304 24.2786 25.8284C28.1137 25.8284 31.8236 25.8284 35.5335 25.8284C35.8622 27.1589 35.8935 31.855 35.5804 34.156C31.8705 34.156 28.1606 34.156 24.2786 34.156Z" fill="url(#paint1_linear_294_767)"/>
<path id="Vector_3" d="M35.1892 22.6663C31.6985 22.6663 28.3016 22.6663 24.7483 22.6663C25.1083 21.3357 25.4057 20.0521 25.7814 18.7999C26.251 17.2658 26.8928 15.7944 27.8947 14.5265C29.3348 12.6793 30.6653 12.6793 32.0898 14.5265C33.5299 16.4049 34.2343 18.6277 34.7979 20.8818C34.9387 21.461 35.0483 22.0558 35.1892 22.6663Z" fill="url(#paint2_linear_294_767)"/>
<path id="Vector_4" d="M24.7952 37.3181C28.3016 37.3181 31.6984 37.3181 35.1735 37.3181C34.8447 39.1652 34.4221 40.9497 33.6707 42.609C33.2324 43.5795 32.7315 44.55 32.121 45.411C30.7122 47.352 29.319 47.3207 27.8633 45.3953C26.5484 43.6735 25.8753 41.6541 25.3274 39.5879C25.1239 38.8835 24.983 38.1321 24.7952 37.3181Z" fill="url(#paint3_linear_294_767)"/>
<path id="Vector_5" d="M21.148 34.1561C21.054 34.1718 20.9132 34.1874 20.7879 34.1874C18.5651 34.1874 16.3423 34.1874 14.1195 34.2031C13.7595 34.2031 13.6186 34.1091 13.5403 33.7491C12.9768 31.2289 12.9612 28.7243 13.5717 26.2198C13.6186 26.0632 13.8378 25.8128 13.9786 25.8128C16.3423 25.7971 18.6904 25.7971 21.054 25.8128C21.0853 25.8128 21.1167 25.8441 21.148 25.8597C21.148 28.6147 21.148 31.3698 21.148 34.1561Z" fill="url(#paint4_linear_294_767)"/>
<path id="Vector_6" d="M38.8364 34.1559C38.8364 31.3852 38.8364 28.6302 38.8364 25.7969C39.2434 25.7969 39.6661 25.7969 40.0887 25.7969C41.9828 25.7969 43.8769 25.8126 45.7709 25.7812C46.1779 25.7812 46.3814 25.8595 46.4753 26.3135C47.0076 28.818 47.0232 31.3069 46.4127 33.7959C46.3658 33.9524 46.1466 34.1872 45.9901 34.1872C43.6577 34.2029 41.3097 34.2029 38.9773 34.2029C38.9147 34.1872 38.8677 34.1559 38.8364 34.1559Z" fill="url(#paint5_linear_294_767)"/>
<path id="Vector_7" d="M38.3511 22.6664C37.8032 19.7078 37.0675 16.8276 35.5178 14.0413C39.9478 15.7005 43.0941 18.5338 45.2074 22.6664C42.8437 22.6664 40.6209 22.6664 38.3511 22.6664Z" fill="url(#paint6_linear_294_767)"/>
<path id="Vector_8" d="M38.3355 37.3181C40.6052 37.3181 42.8437 37.3181 45.1917 37.3181C43.0785 41.4663 39.9321 44.2683 35.5178 45.9432C37.0362 43.1569 37.8189 40.2923 38.3355 37.3181Z" fill="url(#paint7_linear_294_767)"/>
<path id="Vector_9" d="M24.2788 14.1821C23.7465 15.5596 23.1517 16.9215 22.6977 18.3303C22.2438 19.7391 21.962 21.1949 21.5863 22.682C19.3949 22.682 17.172 22.682 14.9336 22.682C15.3406 19.9739 20.9289 14.9178 24.2788 14.1821Z" fill="url(#paint8_linear_294_767)"/>
<path id="Vector_10" d="M14.8865 37.3181C17.1562 37.3181 19.379 37.3181 21.6331 37.3181C22.181 40.2766 22.9167 43.1412 24.3882 45.8023C21.414 45.458 15.7318 40.3862 14.8865 37.3181Z" fill="url(#paint9_linear_294_767)"/>
</g>
<defs>
<linearGradient id="paint0_linear_294_767" x1="26.8669" y1="63.322" x2="30.0262" y2="12.2449" gradientUnits="userSpaceOnUse">
<stop stop-color="#1D62C8"/>
<stop offset="1" stop-color="#80D5FF"/>
</linearGradient>
<linearGradient id="paint1_linear_294_767" x1="29.4385" y1="34.6199" x2="29.7562" y2="27.5155" gradientUnits="userSpaceOnUse">
<stop stop-color="#1D62C8"/>
<stop offset="1" stop-color="#80D5FF"/>
</linearGradient>
<linearGradient id="paint2_linear_294_767" x1="29.4249" y1="23.1968" x2="29.8829" y2="15.0805" gradientUnits="userSpaceOnUse">
<stop stop-color="#1D62C8"/>
<stop offset="1" stop-color="#80D5FF"/>
</linearGradient>
<linearGradient id="paint3_linear_294_767" x1="29.4438" y1="47.3842" x2="29.9055" y2="39.2598" gradientUnits="userSpaceOnUse">
<stop stop-color="#1D62C8"/>
<stop offset="1" stop-color="#80D5FF"/>
</linearGradient>
<linearGradient id="paint4_linear_294_767" x1="16.7135" y1="34.6711" x2="17.1763" y2="27.5188" gradientUnits="userSpaceOnUse">
<stop stop-color="#1D62C8"/>
<stop offset="1" stop-color="#80D5FF"/>
</linearGradient>
<linearGradient id="paint5_linear_294_767" x1="42.436" y1="34.6719" x2="42.9007" y2="27.5032" gradientUnits="userSpaceOnUse">
<stop stop-color="#1D62C8"/>
<stop offset="1" stop-color="#80D5FF"/>
</linearGradient>
<linearGradient id="paint6_linear_294_767" x1="39.8579" y1="23.1468" x2="40.2626" y2="15.7962" gradientUnits="userSpaceOnUse">
<stop stop-color="#1D62C8"/>
<stop offset="1" stop-color="#80D5FF"/>
</linearGradient>
<linearGradient id="paint7_linear_294_767" x1="39.8509" y1="46.4236" x2="40.2563" y2="39.0731" gradientUnits="userSpaceOnUse">
<stop stop-color="#1D62C8"/>
<stop offset="1" stop-color="#80D5FF"/>
</linearGradient>
<linearGradient id="paint8_linear_294_767" x1="19.1194" y1="23.1554" x2="19.5269" y2="15.9126" gradientUnits="userSpaceOnUse">
<stop stop-color="#1D62C8"/>
<stop offset="1" stop-color="#80D5FF"/>
</linearGradient>
<linearGradient id="paint9_linear_294_767" x1="19.1424" y1="46.2749" x2="19.5418" y2="39.0445" gradientUnits="userSpaceOnUse">
<stop stop-color="#1D62C8"/>
<stop offset="1" stop-color="#80D5FF"/>
</linearGradient>
<clipPath id="clip0_294_767">
<rect width="59.9844" height="60" fill="white"/>
</clipPath>
</defs>
</svg>
