<svg width="17" height="32" viewBox="0 0 17 32" fill="none" xmlns="http://www.w3.org/2000/svg">
<path id="Vector" d="M4.91611 32C4.91108 31.8649 4.90102 31.7305 4.90102 31.5954C4.90102 27.0144 4.90102 22.4329 4.90102 17.851V17.4119H0V11.7219H4.90102C4.90102 11.5616 4.90102 11.4409 4.90102 11.3194C4.90749 9.83043 4.8694 8.34 4.9312 6.85317C5.00307 5.06092 5.53557 3.41671 6.79963 2.07791C7.76187 1.05962 8.96269 0.483281 10.3209 0.193675C11.4218 -0.0413149 12.5364 -0.0140074 13.6488 0.0283914C14.5536 0.063604 15.4562 0.141215 16.3595 0.20158C16.4356 0.211254 16.5112 0.224927 16.5859 0.242542V5.31531C16.4781 5.31531 16.3703 5.31531 16.2589 5.31531C15.1457 5.33112 14.0311 5.31531 12.9194 5.3728C11.6051 5.44467 10.862 6.17048 10.8074 7.49275C10.7506 8.8646 10.788 10.2408 10.7851 11.6148C10.793 11.6466 10.8048 11.6772 10.8203 11.706H16.399C16.1525 13.619 15.9118 15.4903 15.6667 17.3947H10.8009C10.7901 17.5168 10.7758 17.6059 10.7758 17.6951C10.7758 22.3901 10.7758 27.0851 10.7758 31.7801C10.7758 31.852 10.7858 31.9238 10.7916 31.9957L4.91611 32Z" fill="#1D62C8"/>
</svg>
