<svg width="14" height="26" viewBox="0 0 14 26" fill="none" xmlns="http://www.w3.org/2000/svg">
<path id="Vector" d="M3.99434 26C3.99025 25.8902 3.98208 25.781 3.98208 25.6713C3.98208 21.9492 3.98208 18.2268 3.98208 14.5039V14.1472H0V9.524H3.98208C3.98208 9.3938 3.98208 9.29571 3.98208 9.19703C3.98733 7.98723 3.95639 6.77625 4.0066 5.5682C4.06499 4.112 4.49765 2.77607 5.52469 1.6883C6.30651 0.86094 7.28218 0.392666 8.38572 0.157361C9.28023 -0.0335684 10.1858 -0.011381 11.0897 0.023068C11.8248 0.0516783 12.5581 0.114738 13.2921 0.163784C13.3539 0.171644 13.4153 0.182753 13.476 0.197065V4.31869C13.3884 4.31869 13.3008 4.31869 13.2103 4.31869C12.3059 4.33154 11.4003 4.31869 10.497 4.3654C9.42912 4.42379 8.82538 5.01351 8.78101 6.08786C8.73488 7.20249 8.76524 8.32062 8.76291 9.43701C8.76928 9.46283 8.7789 9.48774 8.79152 9.51116H13.3242C13.1239 11.0655 12.9283 12.5859 12.7292 14.1332H8.77575C8.76699 14.2324 8.75532 14.3048 8.75532 14.3772C8.75532 18.1919 8.75532 22.0066 8.75532 25.8213C8.75532 25.8797 8.76349 25.9381 8.76816 25.9965L3.99434 26Z" fill="white"/>
</svg>
