<svg width="10" height="20" viewBox="0 0 10 20" fill="none" xmlns="http://www.w3.org/2000/svg">
<g id="fb 1" clip-path="url(#clip0_152_26549)">
<path id="Vector" d="M3.0918 19.9999C3.08898 19.9241 3.08334 19.8487 3.08334 19.7729C3.08334 17.2024 3.08334 14.6317 3.08334 12.0608V11.8144H0.333336V8.62165H3.08334C3.08334 8.53174 3.08334 8.46399 3.08334 8.39585C3.08696 7.56036 3.06559 6.72407 3.10027 5.8898C3.14059 4.88416 3.43938 3.96157 4.14866 3.21036C4.68858 2.63899 5.36237 2.31561 6.12446 2.15311C6.74221 2.02125 7.36761 2.03657 7.9918 2.06036C8.49946 2.08012 9.00592 2.12367 9.51277 2.15754C9.55548 2.16297 9.59788 2.17064 9.63979 2.18053V5.0269C9.5793 5.0269 9.51882 5.0269 9.45632 5.0269C8.83172 5.03577 8.20632 5.0269 7.58253 5.05915C6.84503 5.09948 6.42809 5.50674 6.39745 6.24867C6.36559 7.01843 6.38656 7.79061 6.38495 8.56157C6.38935 8.57941 6.39599 8.59661 6.40471 8.61278H9.53495C9.39664 9.68617 9.26156 10.7362 9.12406 11.8047H6.39382C6.38777 11.8733 6.37971 11.9233 6.37971 11.9733C6.37971 14.6077 6.37971 17.2421 6.37971 19.8765C6.37971 19.9168 6.38535 19.9571 6.38858 19.9975L3.0918 19.9999Z" fill="#222222"/>
</g>
<defs>
<clipPath id="clip0_152_26549">
<rect width="9.23387" height="20" fill="white" transform="translate(0.333336)"/>
</clipPath>
</defs>
</svg>
