<svg width="60" height="50" viewBox="0 0 60 50" fill="none" xmlns="http://www.w3.org/2000/svg">
<g id="Frame" clip-path="url(#clip0_142_15384)">
<path id="Vector" d="M59.4589 38.2341C57.089 39.3876 54.5932 40.0797 51.9925 40.4782C50.4195 40.7299 48.8046 40.8348 47.1267 41.0235C47.1267 40.625 47.1267 40.3314 47.1267 40.0168C47.1477 38.0873 47.1267 36.1368 46.5185 34.2702C45.1343 30.0965 42.3658 27.2442 38.2551 25.6921C38.0873 25.6292 37.8985 25.5663 37.6469 25.4614C39.7232 23.3641 40.8138 20.9103 40.9396 17.995C43.4564 17.995 45.9103 17.974 48.3641 18.016C49.245 18.0369 50.1469 18.1418 51.0067 18.3515C55.4111 19.4421 58.662 23.0705 59.3331 27.5587C59.3541 27.7056 59.417 27.8524 59.4589 27.9992C59.4589 31.4178 59.4589 34.8364 59.4589 38.2341Z" fill="url(#paint0_linear_142_15384)"/>
<path id="Vector_2" d="M45.0503 41.9253C45.0503 43.5192 45.0293 45.0922 45.0503 46.6862C45.0503 47.0637 44.9454 47.2734 44.5889 47.4412C42.3238 48.5108 39.9538 49.1191 37.5 49.4966C30.3271 50.6291 23.3221 49.7902 16.4219 47.6929C15.3313 47.3573 15.3104 47.3573 15.3313 46.2038C15.3313 43.4144 15.2894 40.6249 15.3523 37.8565C15.4781 32.0889 20.0293 27.3489 25.8179 27.0972C28.859 26.9714 31.9211 26.9924 34.9832 27.1182C39.3246 27.307 43.4773 30.8724 44.6308 35.13C45.1132 36.9546 45.0503 38.8003 45.0713 40.6669C45.0503 41.0863 45.0503 41.5058 45.0503 41.9253Z" fill="url(#paint1_linear_142_15384)"/>
<path id="Vector_3" d="M19.3792 18.0788C19.547 20.9731 20.6166 23.406 22.651 25.4614C15.5411 28.1879 12.7097 33.5151 13.276 40.9396C12.1644 40.8347 11.1577 40.7718 10.151 40.6459C6.92112 40.2474 3.77514 39.4924 0.650144 38.5696C0.167761 38.4228 -0.0209974 38.234 -2.42598e-05 37.7097C0.0419221 34.8783 -2.42594e-05 32.0679 0.0209489 29.2365C0.0628952 23.7416 3.83806 19.2114 9.14427 18.2256C9.60568 18.1417 10.0671 18.0578 10.5285 18.0578C13.3179 18.0369 16.0864 18.0369 18.8758 18.0369C19.0226 18.0369 19.1904 18.0578 19.3792 18.0788Z" fill="url(#paint2_linear_142_15384)"/>
<path id="Vector_4" d="M21.4765 17.6804C21.4975 12.8776 25.3775 8.97656 30.1804 8.97656C34.9623 8.97656 38.8842 12.8985 38.9052 17.6804C38.9052 22.5042 34.9623 26.4262 30.1384 26.3843C25.3146 26.3843 21.4556 22.5042 21.4765 17.6804Z" fill="url(#paint3_linear_142_15384)"/>
<path id="Vector_5" d="M14.891 9.36972e-05C19.6938 0.0210669 23.5739 3.88013 23.5948 8.66201C23.5948 9.03952 23.469 9.2912 23.1754 9.54288C21.2878 11.1578 20.0923 13.1712 19.589 15.6041C19.526 15.8558 19.3163 16.1704 19.0856 16.2753C16.0445 17.8902 13.0034 17.8482 10.1301 15.9816C7.27771 14.115 5.9564 11.3675 6.18711 7.96989C6.5017 3.48164 10.3608 -0.0208795 14.891 9.36972e-05Z" fill="url(#paint4_linear_142_15384)"/>
<path id="Vector_6" d="M44.6309 9.25949e-05C49.245 0.0210657 53.1041 3.69137 53.2928 8.2006C53.4816 12.9825 50.0839 16.9254 45.4069 17.3659C44.0227 17.4917 42.6804 17.282 41.3801 16.7786C41.0655 16.6528 40.8977 16.485 40.8348 16.1284C40.3524 13.0244 38.8004 10.5706 36.2207 8.80882C35.9061 8.57811 35.8851 8.34741 35.9061 8.03281C36.2417 3.52358 40.0798 -0.0208806 44.6309 9.25949e-05Z" fill="url(#paint5_linear_142_15384)"/>
</g>
<defs>
<linearGradient id="paint0_linear_142_15384" x1="47.4168" y1="42.3065" x2="48.6975" y2="22.7006" gradientUnits="userSpaceOnUse">
<stop stop-color="#1D62C8"/>
<stop offset="1" stop-color="#80D5FF"/>
</linearGradient>
<linearGradient id="paint1_linear_142_15384" x1="28.6447" y1="51.2835" x2="29.5819" y2="31.6759" gradientUnits="userSpaceOnUse">
<stop stop-color="#1D62C8"/>
<stop offset="1" stop-color="#80D5FF"/>
</linearGradient>
<linearGradient id="paint2_linear_142_15384" x1="10.1448" y1="42.2152" x2="11.3644" y2="22.714" gradientUnits="userSpaceOnUse">
<stop stop-color="#1D62C8"/>
<stop offset="1" stop-color="#80D5FF"/>
</linearGradient>
<linearGradient id="paint3_linear_142_15384" x1="29.2831" y1="27.3543" x2="30.1989" y2="12.5302" gradientUnits="userSpaceOnUse">
<stop stop-color="#1D62C8"/>
<stop offset="1" stop-color="#80D5FF"/>
</linearGradient>
<linearGradient id="paint4_linear_142_15384" x1="13.9701" y1="18.4083" x2="14.8887" y2="3.55973" gradientUnits="userSpaceOnUse">
<stop stop-color="#1D62C8"/>
<stop offset="1" stop-color="#80D5FF"/>
</linearGradient>
<linearGradient id="paint5_linear_142_15384" x1="43.694" y1="18.3708" x2="44.6107" y2="3.55246" gradientUnits="userSpaceOnUse">
<stop stop-color="#1D62C8"/>
<stop offset="1" stop-color="#80D5FF"/>
</linearGradient>
<clipPath id="clip0_142_15384">
<rect width="59.4589" height="50" fill="white"/>
</clipPath>
</defs>
</svg>
