<svg width="60" height="60" viewBox="0 0 60 60" fill="none" xmlns="http://www.w3.org/2000/svg">
<g id="Frame" clip-path="url(#clip0_595_351)">
<path id="Vector" d="M59.9724 28.2687C59.9724 29.4259 59.9724 30.5923 59.9724 31.7495C59.9449 31.8965 59.9081 32.0434 59.8898 32.1904C59.7796 33.0996 59.7245 34.018 59.5683 34.9181C58.3928 41.6868 55.3069 47.436 50.2556 52.0924C45.6176 56.363 40.153 58.8979 33.8986 59.7336C33.1731 59.8346 32.4476 59.9081 31.7312 59.9908C30.574 59.9908 29.4076 59.9908 28.2504 59.9908C28.131 59.9632 28.0208 59.9265 27.9014 59.9173C23.4746 59.6234 19.3234 58.3927 15.4477 56.2345C10.0015 53.1853 5.85946 48.8688 3.09503 43.2664C0.532656 38.1141 -0.41331 32.6404 0.165291 26.9095C0.560209 22.997 1.68067 19.3142 3.54505 15.861C6.72277 9.9923 11.3424 5.61147 17.3947 2.79193C22.9787 0.192822 28.8474 -0.587831 34.9181 0.431609C41.696 1.56126 47.4453 4.69305 52.0924 9.7627C56.3447 14.3915 58.8795 19.8561 59.7153 26.1013C59.8163 26.8177 59.8898 27.5432 59.9724 28.2687ZM12.0037 31.6761C12.0037 32.3557 12.022 32.9986 11.9945 33.6323C11.9761 33.9996 12.1139 34.1925 12.4537 34.3119C13.1517 34.5691 13.8405 34.8538 14.5477 35.1109C14.8783 35.2303 15.0344 35.4599 15.163 35.7906C15.6406 37.012 16.1365 38.2244 16.6692 39.4183C16.8253 39.7673 16.8621 40.0704 16.7059 40.4194C16.4029 41.0806 16.1273 41.7694 15.8059 42.4215C15.6406 42.7521 15.7049 42.9817 15.962 43.2297C16.908 44.1573 17.854 45.1033 18.7815 46.0492C19.0571 46.3248 19.2959 46.3431 19.6357 46.1778C20.3061 45.8564 20.9857 45.5349 21.6837 45.2778C21.9317 45.1859 22.2807 45.2135 22.5379 45.3145C23.7685 45.7921 24.9808 46.334 26.2115 46.8115C26.5513 46.9493 26.7809 47.1238 26.9095 47.4728C27.1575 48.1616 27.4514 48.832 27.6902 49.53C27.8096 49.8698 27.9841 50.0168 28.3514 50.0076C29.6923 49.9892 31.0424 49.9892 32.3833 50.0076C32.7414 50.0168 32.9068 49.8698 33.017 49.5576C33.2741 48.8412 33.5313 48.1249 33.8435 47.4269C33.9446 47.1973 34.2017 46.9768 34.4313 46.8758C35.6712 46.334 36.9202 45.8105 38.1876 45.3237C38.4448 45.2227 38.7938 45.1951 39.0418 45.287C39.7581 45.5441 40.4469 45.8747 41.1358 46.2054C41.448 46.3615 41.6684 46.3156 41.9072 46.0676C42.8532 45.1125 43.7992 44.1573 44.7635 43.2205C45.0298 42.9634 45.0666 42.7338 44.9104 42.4123C44.589 41.7419 44.2675 41.0623 44.0104 40.3551C43.9185 40.0887 43.9461 39.7214 44.0563 39.455C44.5247 38.2335 45.0574 37.0396 45.5258 35.8181C45.6635 35.4507 45.8472 35.2211 46.2054 35.0926C46.9126 34.8446 47.6106 34.5691 48.2994 34.2935C48.4555 34.2293 48.6759 34.0823 48.6851 33.9629C48.7219 33.2098 48.7035 32.4475 48.7035 31.7036C45.9023 31.7036 43.1563 31.7036 40.4194 31.7036C40.4653 37.2417 35.6436 41.5398 30.7117 41.6225C28.4157 41.6592 26.3401 41.0531 24.4941 39.6938C21.8031 37.71 20.5174 34.9915 20.3796 31.6852C17.5692 31.6761 14.8232 31.6761 12.0037 31.6761ZM39.0234 31.621C39.0142 26.836 35.1201 22.9511 30.3628 22.9695C25.5686 22.9879 21.7205 26.8452 21.7113 31.6393C21.7021 36.4426 25.5778 40.3092 30.3995 40.3C35.1844 40.2816 39.0326 36.4151 39.0234 31.621ZM24.54 23.4563C24.4574 23.4011 24.4022 23.3736 24.3563 23.3369C20.1408 19.9571 13.8129 21.9317 12.2884 27.1207C12.0128 28.0667 12.2884 28.4524 13.2619 28.4616C15.613 28.4616 17.9642 28.4524 20.3245 28.4708C20.7378 28.4708 20.9674 28.333 21.1143 27.9473C21.546 26.8268 22.1521 25.8074 22.9971 24.9349C23.4746 24.4481 23.989 23.9889 24.54 23.4563ZM36.1855 23.5389C37.8386 24.7696 39.0142 26.3125 39.7489 28.2045C39.8041 28.3422 40.0888 28.4616 40.2633 28.4616C42.7338 28.48 45.2135 28.4708 47.6932 28.4616C48.2626 28.4616 48.5198 28.1677 48.5014 27.5891C48.4922 27.3779 48.4463 27.1666 48.382 26.9646C47.1238 23.0246 42.9083 20.8204 38.9407 22.0052C37.9305 22.3174 37.0029 22.795 36.1855 23.5389ZM30.3444 17.7253C32.4751 17.7345 34.1925 16.0355 34.2109 13.9047C34.2293 11.7648 32.5027 10.0199 30.3536 10.0199C28.232 10.0199 26.5146 11.7373 26.5146 13.868C26.5054 15.9895 28.2228 17.7162 30.3444 17.7253ZM19.5438 20.8571C21.7113 20.8663 23.4104 19.1948 23.4471 17.0274C23.4838 14.9426 21.7297 13.1608 19.6173 13.1516C17.4682 13.1425 15.7508 14.8599 15.7508 17.0182C15.7508 19.1397 17.4407 20.848 19.5438 20.8571ZM37.2968 17.0274C37.2968 19.1489 39.0142 20.8755 41.1266 20.8847C43.2389 20.8939 44.9655 19.1673 44.9747 17.0457C44.9839 14.8966 43.2573 13.1608 41.1174 13.17C38.9958 13.17 37.2968 14.8783 37.2968 17.0274ZM36.461 21.6562C33.3017 17.2478 26.7442 17.8264 24.3104 21.6745C24.6778 21.9592 25.0543 22.2439 25.4125 22.547C25.6421 22.7399 25.8533 22.7491 26.1197 22.6297C28.9668 21.3347 31.8138 21.3531 34.6701 22.6297C34.8262 22.694 35.0834 22.7032 35.212 22.6113C35.6436 22.3266 36.0294 21.9868 36.461 21.6562Z" fill="url(#paint0_linear_595_351)"/>
<path id="Vector_2" d="M35.1203 31.6209C35.1295 34.2384 33.0079 36.3783 30.3904 36.3967C27.773 36.4151 25.6055 34.266 25.6055 31.6301C25.5963 29.0127 27.727 26.8911 30.3537 26.8911C32.9804 26.8911 35.1111 29.0127 35.1203 31.6209Z" fill="url(#paint1_linear_595_351)"/>
</g>
<defs>
<linearGradient id="paint0_linear_595_351" x1="26.8632" y1="63.3323" x2="30.0243" y2="12.2462" gradientUnits="userSpaceOnUse">
<stop stop-color="#1D62C8"/>
<stop offset="1" stop-color="#80D5FF"/>
</linearGradient>
<linearGradient id="paint1_linear_595_351" x1="29.8673" y1="36.9263" x2="30.3675" y2="28.8316" gradientUnits="userSpaceOnUse">
<stop stop-color="#1D62C8"/>
<stop offset="1" stop-color="#80D5FF"/>
</linearGradient>
<clipPath id="clip0_595_351">
<rect width="59.9725" height="60" fill="white"/>
</clipPath>
</defs>
</svg>
