<svg width="32" height="24" viewBox="0 0 32 24" fill="none" xmlns="http://www.w3.org/2000/svg">
<g id="Frame" clip-path="url(#clip0_300_3730)">
<path id="Vector" d="M0 1.7699C0 1.6991 0.0707965 1.62831 0.0707965 1.48671C0.424779 0.495562 1.41593 -0.141606 2.47788 -1.35545e-05C3.46903 0.212376 4.24779 1.06193 4.24779 2.12388C4.24779 3.18583 3.46903 4.10618 2.40708 4.24777C1.41593 4.38937 0.424779 3.7522 0.0707965 2.76105C0.0707965 2.69025 0 2.54866 0 2.47786C0 2.26547 0 1.98229 0 1.7699Z" fill="#222222"/>
<path id="Vector_2" d="M-4.32134e-06 21.5221C0.141589 21.1681 0.283182 20.7434 0.495571 20.4602C1.13274 19.6814 2.19469 19.469 3.04424 19.8938C3.8938 20.3186 4.38938 21.3097 4.17699 22.2301C3.9646 23.1504 3.11504 23.8584 2.12389 23.9292C1.20354 24 0.283182 23.292 -4.32134e-06 22.3717C-4.32134e-06 22.3009 -0.0708008 22.2301 -0.0708008 22.1593C-4.32134e-06 21.9469 -4.32134e-06 21.7345 -4.32134e-06 21.5221Z" fill="#222222"/>
<path id="Vector_3" d="M0 11.6106C0 11.5398 0.0707965 11.469 0.0707965 11.3274C0.424779 10.3363 1.41593 9.69913 2.47788 9.91151C3.53982 10.0531 4.24779 10.9735 4.24779 12.0354C4.24779 13.0974 3.46903 13.9469 2.47788 14.1593C1.41593 14.3009 0.424779 13.7345 0.0707965 12.6726C0.0707965 12.6018 0 12.531 0 12.3894C0 12.1062 0 11.8938 0 11.6106Z" fill="#222222"/>
<path id="Vector_4" d="M19.6106 13.5929C16.1415 13.5929 12.6725 13.5929 9.13269 13.5929C8.70791 13.5929 8.28313 13.5222 7.92915 13.239C7.43357 12.8142 7.22118 12.2478 7.43357 11.6106C7.57516 10.9735 8.14154 10.5487 8.7787 10.4779C8.9203 10.4779 9.06189 10.4779 9.20348 10.4779C16.1415 10.4779 23.1504 10.4779 30.0884 10.4779C31.0796 10.4779 31.646 10.9735 31.8583 11.7522C32.0707 12.6018 31.4336 13.4514 30.584 13.5929C30.3716 13.5929 30.23 13.5929 30.0176 13.5929C26.5486 13.5929 23.0796 13.5929 19.6106 13.5929Z" fill="#222222"/>
<path id="Vector_5" d="M19.6106 3.61065C16.0707 3.61065 12.5309 3.61065 9.06189 3.61065C7.99995 3.61065 7.29198 2.83188 7.36278 1.84073C7.43357 1.06197 8.07074 0.495601 8.8495 0.424805C8.9911 0.424805 9.06189 0.424805 9.20349 0.424805C16.1415 0.424805 23.0796 0.424805 29.9468 0.424805C30.23 0.424805 30.4424 0.424805 30.7256 0.495601C31.4336 0.70799 31.9292 1.48675 31.7876 2.19472C31.646 2.97348 31.0088 3.53985 30.23 3.53985C27.469 3.53985 24.7787 3.53985 22.0176 3.53985C21.2389 3.61065 20.4601 3.61065 19.6106 3.61065Z" fill="#222222"/>
<path id="Vector_6" d="M19.6814 20.3894C23.1504 20.3894 26.6902 20.3894 30.1593 20.3894C31.0088 20.3894 31.5752 20.8142 31.7876 21.5221C32.0708 22.5133 31.3628 23.5044 30.3717 23.5752C30.3009 23.5752 30.1593 23.5752 30.0885 23.5752C23.1504 23.5752 16.1416 23.5752 9.20351 23.5752C8.99112 23.5752 8.70793 23.5752 8.49554 23.5044C7.71678 23.2921 7.292 22.5133 7.4336 21.7345C7.57519 21.0266 8.21236 20.4602 8.99112 20.4602C12.5309 20.3894 16.0708 20.3894 19.6814 20.3894Z" fill="#222222"/>
</g>
<defs>
<clipPath id="clip0_300_3730">
<rect width="31.8584" height="24" fill="white"/>
</clipPath>
</defs>
</svg>
