<svg width="60" height="60" viewBox="0 0 60 60" fill="none" xmlns="http://www.w3.org/2000/svg">
<g id="Frame" clip-path="url(#clip0_595_320)">
<g id="Group">
<path id="Vector" d="M0 32.2414C0 30.7414 0 29.2586 0 27.7586C0.103448 27.0862 0.224138 26.4138 0.310345 25.7414C2 13.6552 11.0862 3.63793 22.9483 0.862069C24.5345 0.482759 26.1552 0.293103 27.7586 0C29.2586 0 30.7414 0 32.2414 0C32.9138 0.103448 33.5862 0.224138 34.2759 0.310345C46.3621 2 56.3793 11.1034 59.1379 22.9483C59.5 24.5345 59.7069 26.1552 60 27.7586C60 29.2586 60 30.7414 60 32.2414C59.8966 32.9138 59.7759 33.5862 59.6897 34.2586C57.9828 46.3966 48.9483 56.3276 36.9828 59.1552C35.431 59.5172 33.8276 59.7241 32.2586 60C30.7586 60 29.2759 60 27.7759 60C27.1034 59.8966 26.431 59.7759 25.7414 59.6897C13.6379 58 3.62069 48.8965 0.862069 37.0517C0.482759 35.4655 0.275862 33.8448 0 32.2414ZM50 30C50 19.0172 41.0345 10.0172 30.0862 10C18.9655 10 10 18.931 10 30.0172C10 41.0517 18.9655 50.0172 30 50.0172C41.0517 50 50 41.0345 50 30Z" fill="url(#paint0_linear_595_320)"/>
<path id="Vector_2" d="M30.7586 19.1034C30.7586 18.2413 30.7586 17.3793 30.7586 16.5172C30.7586 16 30.9655 15.6896 31.4827 15.4827C33.3275 14.7758 35.1379 13.9827 36.9827 13.3103C37.4137 13.1551 38.0172 13.1896 38.431 13.3965C41.0861 14.6724 43.293 16.5344 44.9999 18.931C45.2758 19.3103 45.362 19.9655 45.2758 20.4482C45.0172 21.862 44.6206 23.2413 44.3103 24.6379C44.1723 25.2413 43.8448 25.5689 43.2586 25.7586C41.5344 26.3103 39.8448 26.931 38.1206 27.431C37.6723 27.5517 36.9999 27.4482 36.6379 27.1724C34.862 25.862 33.1379 24.4827 31.4655 23.0344C31.0689 22.6896 30.8275 22.0344 30.7413 21.5C30.6206 20.7069 30.7068 19.8965 30.7068 19.0862C30.7241 19.1034 30.7413 19.1034 30.7586 19.1034Z" fill="url(#paint1_linear_595_320)"/>
<path id="Vector_3" d="M29.293 19.1551C29.9654 21.6896 28.7413 23.2758 26.7413 24.5689C25.5689 25.3275 24.5172 26.2758 23.4309 27.1723C22.9654 27.5516 22.4999 27.6551 21.9137 27.4482C20.1896 26.8447 18.4309 26.3275 16.7068 25.6723C16.293 25.5171 15.862 25.0516 15.7413 24.6206C15.3103 23.1896 14.9827 21.7413 14.7241 20.2758C14.6551 19.8447 14.793 19.2758 15.0344 18.9309C16.7241 16.5689 18.8792 14.7068 21.5172 13.4482C21.9827 13.224 22.6551 13.1896 23.1206 13.3447C24.9309 13.9827 26.6896 14.7413 28.4827 15.4137C29.0861 15.6378 29.3275 15.9999 29.293 16.6378C29.2585 17.4999 29.293 18.3275 29.293 19.1551Z" fill="url(#paint2_linear_595_320)"/>
<path id="Vector_4" d="M11.4656 31.9827C11.5518 31.8102 11.638 31.4999 11.8276 31.2758C12.8621 30.0171 13.9311 28.7758 14.9656 27.5171C15.3621 27.0344 15.7759 26.9654 16.3276 27.1551C18.0001 27.724 19.6897 28.293 21.3794 28.8275C21.9828 29.0171 22.3104 29.3792 22.4656 30.0171C22.9483 32.0861 23.5173 34.1206 23.9656 36.1896C24.069 36.6206 23.9483 37.224 23.6897 37.6034C22.9828 38.6723 22.207 39.7068 21.3621 40.6896C21.1207 40.9654 20.5863 41.1723 20.207 41.1378C18.5001 40.9309 16.8104 40.6378 15.1207 40.3447C14.7759 40.2758 14.3621 40.1034 14.1897 39.8447C12.6552 37.4827 11.7932 34.8965 11.4656 31.9827Z" fill="url(#paint3_linear_595_320)"/>
<path id="Vector_5" d="M48.5518 31.9828C48.1897 34.8794 47.3794 37.3966 45.8794 39.6725C45.6725 39.9828 45.2242 40.2414 44.8449 40.3104C43.1897 40.6208 41.5173 40.9139 39.8277 41.1035C39.4311 41.1552 38.8449 40.9311 38.569 40.6208C37.707 39.6208 36.9139 38.5518 36.1725 37.4656C35.9656 37.1552 35.8966 36.638 35.9828 36.2759C36.4483 34.207 37.0001 32.1552 37.4828 30.0863C37.638 29.4311 37.9828 29.0345 38.6208 28.8104C40.3277 28.2414 42.0518 27.6725 43.7587 27.0863C44.2587 26.9139 44.6208 26.9828 44.9656 27.4139C46.0173 28.707 47.1035 29.9828 48.138 31.2759C48.3621 31.5173 48.4656 31.8449 48.5518 31.9828Z" fill="url(#paint4_linear_595_320)"/>
<path id="Vector_6" d="M29.9656 37.8794C31.2932 37.8794 32.6035 37.8277 33.9311 37.9139C34.3276 37.9311 34.8276 38.1897 35.0863 38.5001C35.8966 39.4311 36.6035 40.4484 37.3449 41.4311C37.6897 41.8794 37.7587 42.3277 37.4483 42.8622C36.5518 44.3966 35.7242 45.9656 34.7759 47.4829C34.5345 47.8622 34.0173 48.1898 33.569 48.3104C31.4138 48.8104 29.2414 48.8277 27.069 48.4311C26.569 48.3449 26.0001 47.9484 25.7069 47.5173C24.569 45.8966 23.5345 44.207 22.4828 42.5346C22.3621 42.3449 22.3794 41.9139 22.5173 41.7242C23.3104 40.6035 24.138 39.4829 25.0001 38.4311C25.2242 38.1725 25.6552 37.9484 26.0001 37.9311C27.3104 37.8449 28.638 37.8794 29.9656 37.8794Z" fill="url(#paint5_linear_595_320)"/>
</g>
</g>
<defs>
<linearGradient id="paint0_linear_595_320" x1="26.8749" y1="63.342" x2="30.0353" y2="12.2488" gradientUnits="userSpaceOnUse">
<stop stop-color="#1D62C8"/>
<stop offset="1" stop-color="#80D5FF"/>
</linearGradient>
<linearGradient id="paint1_linear_595_320" x1="37.2304" y1="28.2755" x2="37.9633" y2="16.1241" gradientUnits="userSpaceOnUse">
<stop stop-color="#1D62C8"/>
<stop offset="1" stop-color="#80D5FF"/>
</linearGradient>
<linearGradient id="paint2_linear_595_320" x1="21.323" y1="28.3496" x2="22.0527" y2="16.1666" gradientUnits="userSpaceOnUse">
<stop stop-color="#1D62C8"/>
<stop offset="1" stop-color="#80D5FF"/>
</linearGradient>
<linearGradient id="paint3_linear_595_320" x1="17.0811" y1="41.9261" x2="17.9137" y2="29.9446" gradientUnits="userSpaceOnUse">
<stop stop-color="#1D62C8"/>
<stop offset="1" stop-color="#80D5FF"/>
</linearGradient>
<linearGradient id="paint4_linear_595_320" x1="41.5926" y1="41.897" x2="42.424" y2="29.8913" gradientUnits="userSpaceOnUse">
<stop stop-color="#1D62C8"/>
<stop offset="1" stop-color="#80D5FF"/>
</linearGradient>
<linearGradient id="paint5_linear_595_320" x1="29.2303" y1="49.3131" x2="29.6375" y2="40.0606" gradientUnits="userSpaceOnUse">
<stop stop-color="#1D62C8"/>
<stop offset="1" stop-color="#80D5FF"/>
</linearGradient>
<clipPath id="clip0_595_320">
<rect width="60" height="60" fill="white"/>
</clipPath>
</defs>
</svg>
