<svg width="20" height="20" viewBox="0 0 20 20" fill="none" xmlns="http://www.w3.org/2000/svg">
<g id="Frame">
<path id="Vector" d="M8.47634 20C8.17591 20 7.9184 19.8283 7.74672 19.6137C7.14586 18.7983 6.54501 17.9828 5.94415 17.1674C4.35616 15.0215 2.76818 12.8755 1.1802 10.6867C1.09436 10.5579 0.965606 10.3863 1.00852 10.2146C1.05144 9.91416 1.39479 9.61373 1.82398 9.82833C2.98277 10.4721 4.18449 11.1159 5.34329 11.7597C6.0729 12.1459 6.7596 12.5751 7.48921 12.9614C7.78964 13.133 7.87548 13.133 8.09007 12.8755C11.266 9.48498 14.3991 6.09442 17.575 2.74678C17.7467 2.57511 17.8755 2.40343 18.0472 2.23176C18.3047 1.97425 18.5193 1.93133 18.7768 2.103C19.0343 2.27468 19.0772 2.53219 18.9055 2.83262C18.3047 3.86266 17.7467 4.8927 17.1459 5.87983C14.5278 10.3863 11.9098 14.8927 9.3347 19.4421C9.07719 19.8283 8.81968 20 8.47634 20Z" fill="#2C77E7"/>
</g>
</svg>
