<svg width="20" height="15" viewBox="0 0 20 15" fill="none" xmlns="http://www.w3.org/2000/svg">
<g id="Frame" clip-path="url(#clip0_184_4026)">
<path id="Vector" d="M0 1.52353C0.0573963 1.35134 0.109575 1.18437 0.161753 1.02783C2.18106 3.03148 4.18993 5.0247 6.20402 7.01792C4.18471 9.02157 2.17584 11.0096 0.156535 13.008C0.114793 12.888 0.0573963 12.7158 0 12.5436C0 8.87025 0 5.19689 0 1.52353Z" fill="#222222"/>
<path id="Vector_2" d="M1.01226 0.140966C1.24706 0.0887871 1.45056 0.0418265 1.64884 0.0053016C1.71667 -0.00513409 1.78972 8.37583e-05 1.86277 8.37583e-05C7.28411 8.37583e-05 12.7055 8.37581e-05 18.132 0.0053016C18.4033 0.0053016 18.6747 0.0731336 18.9512 0.109659C18.9721 0.151401 18.993 0.193144 19.0138 0.234887C18.9512 0.266194 18.8677 0.281847 18.8208 0.328808C16.071 3.08383 13.3212 5.83885 10.5766 8.59909C10.1957 8.98521 9.8252 8.98521 9.4443 8.60431C6.68406 5.84407 3.93425 3.08383 1.17923 0.32359C1.13227 0.27663 1.09053 0.229669 1.01226 0.140966Z" fill="#222222"/>
<path id="Vector_3" d="M1.04357 13.9002C3.06287 11.9018 5.07174 9.91381 7.08583 7.92059C7.59196 8.4215 8.1294 8.96416 8.67206 9.49638C9.26167 10.0808 10.0913 10.2321 10.8062 9.87728C11.0097 9.77293 11.2027 9.62161 11.3645 9.46507C11.8497 8.99547 12.3246 8.51021 12.7994 8.03017C12.8463 7.98321 12.8985 7.93103 12.9246 7.91016C14.9387 9.90859 16.9423 11.8914 18.9982 13.9263C18.7582 13.9785 18.5599 14.0307 18.3616 14.0672C18.2781 14.0829 18.1946 14.0724 18.1059 14.0724C12.7002 14.0724 7.28933 14.0724 1.88364 14.0724C1.59666 14.0672 1.3149 14.0411 1.04357 13.9002Z" fill="#222222"/>
<path id="Vector_4" d="M19.8591 13.0602C17.8137 11.0357 15.8101 9.04251 13.796 7.04929C15.8205 5.04564 17.8294 3.05242 19.8643 1.03833C19.9061 1.25226 19.9948 1.48706 19.9948 1.72709C20.0052 5.27 20.0052 8.8077 19.9948 12.3506C19.9948 12.5802 19.9113 12.815 19.8591 13.0602Z" fill="#222222"/>
</g>
<defs>
<clipPath id="clip0_184_4026">
<rect width="20" height="14.0673" fill="white"/>
</clipPath>
</defs>
</svg>
