<svg width="32" height="22" viewBox="0 0 32 22" fill="none" xmlns="http://www.w3.org/2000/svg">
<g id="Frame" clip-path="url(#clip0_184_4031)">
<path id="Vector" d="M0 2.38277C0.0897626 2.11348 0.171365 1.85235 0.252967 1.60754C3.41098 4.74107 6.55267 7.85829 9.70252 10.9755C6.54451 14.109 3.40282 17.2181 0.244807 20.3434C0.179525 20.1558 0.0897626 19.8865 0 19.6172C0 13.8724 0 8.12757 0 2.38277Z" fill="#1D62C8"/>
<path id="Vector_2" d="M1.58398 0.220291C1.9512 0.138689 2.26944 0.0652468 2.57953 0.0081251C2.68562 -0.00819537 2.79986 -3.51362e-05 2.9141 -3.51362e-05C11.3926 -3.51362e-05 19.8711 -3.51362e-05 28.3577 0.0081251C28.7821 0.0081251 29.2064 0.114208 29.6389 0.17133C29.6715 0.236612 29.7042 0.301894 29.7368 0.367176C29.6389 0.416137 29.5083 0.440618 29.4349 0.51406C25.1344 4.82266 20.834 9.13127 16.5417 13.448C15.946 14.0519 15.3666 14.0519 14.7709 13.4562C10.4542 9.13943 6.15372 4.82266 1.84511 0.505899C1.77167 0.432457 1.70639 0.359015 1.58398 0.220291Z" fill="#1D62C8"/>
<path id="Vector_3" d="M1.63281 21.7389C4.79082 18.6136 7.93252 15.5045 11.0824 12.3873C11.8739 13.1707 12.7144 14.0193 13.5631 14.8517C14.4852 15.7656 15.7827 16.0023 16.9006 15.4474C17.2189 15.2842 17.5208 15.0475 17.7738 14.8027C18.5327 14.0683 19.2752 13.3094 20.0178 12.5587C20.0913 12.4852 20.1729 12.4036 20.2137 12.371C23.3635 15.4963 26.4971 18.5972 29.7122 21.7797C29.3368 21.8613 29.0267 21.9429 28.7166 22.0001C28.5861 22.0245 28.4555 22.0082 28.3168 22.0082C19.8628 22.0082 11.4006 22.0082 2.94661 22.0082C2.4978 22.0001 2.05714 21.9592 1.63281 21.7389Z" fill="#1D62C8"/>
<path id="Vector_4" d="M31.0564 20.4251C27.8576 17.2589 24.7241 14.1417 21.5742 11.0245C24.7404 7.89096 27.8821 4.77375 31.0646 1.6239C31.1299 1.95847 31.2686 2.32568 31.2686 2.70105C31.2849 8.24185 31.2849 13.7745 31.2686 19.3153C31.2686 19.6743 31.138 20.0416 31.0564 20.4251Z" fill="#1D62C8"/>
</g>
<defs>
<clipPath id="clip0_184_4031">
<rect width="31.2782" height="22" fill="white"/>
</clipPath>
</defs>
</svg>
