<svg width="20" height="15" viewBox="0 0 20 15" fill="none" xmlns="http://www.w3.org/2000/svg">
<g id="Frame" clip-path="url(#clip0_184_3940)">
<path id="Vector" d="M0 1.52365C0.0573963 1.35146 0.109575 1.18449 0.161753 1.02795C2.18106 3.03161 4.18993 5.02482 6.20402 7.01804C4.18471 9.02169 2.17584 11.0097 0.156535 13.0081C0.114793 12.8881 0.0573963 12.7159 0 12.5437C0 8.87037 0 5.19701 0 1.52365Z" fill="white"/>
<path id="Vector_2" d="M1.01172 0.140844C1.24652 0.0886651 1.45002 0.0417044 1.6483 0.00517953C1.71613 -0.00525616 1.78918 -3.8312e-05 1.86223 -3.8312e-05C7.28357 -3.8312e-05 12.7049 -3.83122e-05 18.1315 0.00517953C18.4028 0.00517953 18.6741 0.0730115 18.9507 0.109536C18.9715 0.151279 18.9924 0.193022 19.0133 0.234765C18.9507 0.266072 18.8672 0.281725 18.8202 0.328686C16.0704 3.08371 13.3206 5.83873 10.576 8.59897C10.1951 8.98509 9.82466 8.98509 9.44376 8.60419C6.68352 5.84395 3.93371 3.08371 1.17869 0.323468C1.13173 0.276507 1.08999 0.229547 1.01172 0.140844Z" fill="white"/>
<path id="Vector_3" d="M1.04297 13.9004C3.06228 11.9019 5.07115 9.91393 7.08523 7.92071C7.59137 8.42163 8.1288 8.96428 8.67146 9.4965C9.26108 10.0809 10.0907 10.2322 10.8056 9.87741C11.0091 9.77305 11.2021 9.62173 11.3639 9.4652C11.8491 8.99559 12.324 8.51033 12.7988 8.03029C12.8457 7.98333 12.8979 7.93115 12.924 7.91028C14.9381 9.90871 16.9417 11.8915 18.9976 13.9265C18.7576 13.9786 18.5593 14.0308 18.361 14.0673C18.2775 14.083 18.194 14.0726 18.1053 14.0726C12.6996 14.0726 7.28873 14.0726 1.88304 14.0726C1.59606 14.0673 1.3143 14.0412 1.04297 13.9004Z" fill="white"/>
<path id="Vector_4" d="M19.86 13.0602C17.8146 11.0357 15.811 9.04251 13.7969 7.04929C15.8214 5.04564 17.8303 3.05242 19.8652 1.03833C19.907 1.25226 19.9957 1.48706 19.9957 1.72709C20.0061 5.27 20.0061 8.8077 19.9957 12.3506C19.9957 12.5802 19.9122 12.815 19.86 13.0602Z" fill="white"/>
</g>
<defs>
<clipPath id="clip0_184_3940">
<rect width="20" height="14.0673" fill="white"/>
</clipPath>
</defs>
</svg>
