<svg width="21" height="28" viewBox="0 0 21 28" fill="none" xmlns="http://www.w3.org/2000/svg">
<g id="Frame" clip-path="url(#clip0_184_4044)">
<path id="Vector" d="M10.3436 28C10.2 28 10.0496 28 9.90609 28C9.6805 27.8223 9.42757 27.6719 9.243 27.46C6.89144 24.7188 4.73129 21.8408 2.93343 18.7031C1.90121 16.8984 0.998863 15.0391 0.431481 13.0225C-0.224769 10.7051 -0.170082 8.4082 0.807457 6.20703C2.34554 2.75488 5.00472 0.704102 8.74398 0.109375C9.01742 0.0683594 9.29769 0.0341797 9.57797 0C9.94027 0 10.3026 0 10.6717 0C10.9588 0.0341797 11.2459 0.0683594 11.533 0.109375C14.4998 0.553711 16.8514 2.02344 18.5194 4.50488C20.2694 7.11621 20.659 9.98047 19.8182 13.0156C19.2577 15.0391 18.3416 16.9121 17.3094 18.7168C15.5252 21.8271 13.3787 24.6914 11.0477 27.4121C10.8495 27.6445 10.576 27.8086 10.3436 28ZM10.0838 15.2441C12.8182 15.3057 15.1356 13.043 15.2039 10.2402C15.2723 7.42383 13.0233 5.09277 10.1727 5.03809C7.41097 4.9834 5.10043 7.23926 5.0389 10.0557C4.97738 12.8721 7.2264 15.1826 10.0838 15.2441Z" fill="#1D62C8"/>
</g>
<defs>
<clipPath id="clip0_184_4044">
<rect width="20.2412" height="28" fill="white"/>
</clipPath>
</defs>
</svg>
