<svg width="15" height="20" viewBox="0 0 15 20" fill="none" xmlns="http://www.w3.org/2000/svg">
<g id="Frame" clip-path="url(#clip0_184_3947)">
<path id="Vector" d="M7.38716 20C7.28462 20 7.1772 20 7.07466 20C6.91353 19.873 6.73287 19.7656 6.60103 19.6143C4.92134 17.6562 3.37837 15.6006 2.09419 13.3594C1.35689 12.0703 0.712358 10.7422 0.307084 9.30176C-0.161666 7.64648 -0.122603 6.00586 0.575639 4.43359C1.67427 1.96777 3.57369 0.50293 6.24458 0.078125C6.4399 0.0488281 6.64009 0.0244141 6.84029 0C7.09908 0 7.35787 0 7.62154 0C7.82662 0.0244141 8.03169 0.0488281 8.23677 0.078125C10.3559 0.395508 12.0356 1.44531 13.227 3.21777C14.477 5.08301 14.7553 7.12891 14.1547 9.29688C13.7543 10.7422 13.1001 12.0801 12.3627 13.3691C11.0883 15.5908 9.55513 17.6367 7.89009 19.5801C7.74849 19.7461 7.55318 19.8633 7.38716 20ZM7.20162 10.8887C9.15474 10.9326 10.81 9.31641 10.8588 7.31445C10.9077 5.30273 9.30122 3.6377 7.26509 3.59863C5.29244 3.55957 3.64204 5.1709 3.5981 7.18262C3.55415 9.19434 5.1606 10.8447 7.20162 10.8887Z" fill="white"/>
</g>
<defs>
<clipPath id="clip0_184_3947">
<rect width="14.458" height="20" fill="white"/>
</clipPath>
</defs>
</svg>
