<svg width="51" height="50" viewBox="0 0 51 50" fill="none" xmlns="http://www.w3.org/2000/svg">
<g id="Frame" clip-path="url(#clip0_142_3535)">
<path id="Vector" d="M25.1387 41.3935C18.2972 41.3935 11.4557 41.3347 4.61422 41.4187C1.87426 41.4523 -0.016815 39.4856 -0.00841021 36.7793C0.058828 25.9876 0.0252089 15.1958 0.0252089 4.4041C0.0252089 2.26088 1.19347 0.655572 3.13497 0.151286C3.60564 0.0336191 4.10993 0 4.59741 0C18.3392 0 32.081 0 45.8228 0C48.7141 0 50.3866 1.69776 50.3866 4.59741C50.3866 15.3891 50.3866 26.1809 50.3866 36.9726C50.3866 39.1915 49.1511 40.8472 47.1256 41.2927C46.6885 41.3851 46.2347 41.3851 45.7808 41.3851C38.9057 41.4019 32.0222 41.3935 25.1387 41.3935ZM4.46293 36.9474C18.314 36.9474 32.123 36.9474 45.9237 36.9474C45.9237 26.08 45.9237 15.2631 45.9237 4.44613C32.081 4.44613 18.2804 4.44613 4.46293 4.44613C4.46293 15.2799 4.46293 26.0884 4.46293 36.9474Z" fill="white"/>
<path id="Vector_2" d="M40.5278 50C30.2992 50 20.1378 50 9.89243 50C10.0101 49.8067 10.0941 49.6554 10.1866 49.5209C11.7499 47.3693 13.3132 45.2176 14.9017 43.0828C15.0614 42.8727 15.4228 42.6962 15.7001 42.6962C22.0457 42.671 28.3913 42.6794 34.7453 42.6962C34.9891 42.6962 35.3169 42.8307 35.4597 43.0156C37.1071 45.2345 38.7292 47.4701 40.3597 49.6974C40.4102 49.773 40.4438 49.8571 40.5278 50Z" fill="white"/>
<path id="Vector_3" d="M43.4863 18.2131C43.4863 24.0292 43.4863 29.8117 43.4863 35.6446C40.9565 35.6446 38.4266 35.6446 35.8548 35.6446C35.8548 29.8537 35.8548 24.0545 35.8548 18.2131C38.4014 18.2131 40.9313 18.2131 43.4863 18.2131Z" fill="white"/>
<path id="Vector_4" d="M39.4856 8.4552C39.3091 6.8751 40.511 5.67322 41.9818 5.73205C43.4191 5.79088 44.5453 7.11884 44.3604 8.53084C44.1587 10.0353 42.7635 11.0102 41.2758 10.6404C40.8976 10.548 40.6791 10.6404 40.4101 10.8758C38.83 12.2794 37.2331 13.6578 35.6699 15.0613C35.5102 15.2042 35.3841 15.4984 35.3925 15.7169C35.4765 17.1373 34.5268 18.3392 33.1736 18.4989C31.7868 18.6586 30.5513 17.6752 30.4001 16.238C30.3664 15.8766 30.2152 15.7001 29.9294 15.5404C27.8954 14.3469 25.8783 13.1367 23.8443 11.9684C23.6258 11.8423 23.2896 11.8759 23.0123 11.8759C22.4155 11.8675 21.8104 11.8843 21.2136 11.8928C20.9867 11.9012 20.7262 11.8507 20.5329 11.9432C17.5071 13.4392 14.4898 14.9353 11.4809 16.4734C11.254 16.591 11.0691 16.902 10.9934 17.1541C10.6488 18.4064 9.54782 19.2385 8.31232 19.1124C7.06001 18.9864 6.07665 17.9358 6.04303 16.6919C6.00941 15.4396 6.89191 14.3133 8.16943 14.1704C8.68213 14.1116 9.22844 14.3553 9.76634 14.431C10.0185 14.473 10.3295 14.5571 10.5312 14.4562C13.4308 13.0358 16.3221 11.5902 19.1965 10.1277C19.373 10.0353 19.5327 9.74113 19.5495 9.53101C19.6588 8.1022 20.6673 7.07682 22.0289 7.06001C23.4073 7.0432 24.4327 8.00974 24.5924 9.44696C24.6176 9.65708 24.7857 9.92603 24.9706 10.0437C26.9877 11.2624 29.0217 12.4475 31.0388 13.6578C31.3498 13.8427 31.6019 13.8427 31.9465 13.7334C32.3584 13.5989 32.8374 13.5149 33.2577 13.5821C33.7284 13.6578 34.0393 13.5821 34.3923 13.2627C35.9136 11.8928 37.4685 10.5648 38.9981 9.19482C39.2083 8.9931 39.3259 8.69894 39.4856 8.4552Z" fill="white"/>
<path id="Vector_5" d="M21.3986 22.0709C23.9536 22.0709 26.4666 22.0709 29.0049 22.0709C29.0049 26.6011 29.0049 31.0976 29.0049 35.6446C26.475 35.6446 23.9536 35.6446 21.3986 35.6446C21.3986 31.1313 21.3986 26.6347 21.3986 22.0709Z" fill="white"/>
<path id="Vector_6" d="M14.5739 35.6614C12.0104 35.6614 9.48899 35.6614 6.92554 35.6614C6.92554 32.434 6.92554 29.2318 6.92554 25.9791C9.47218 25.9791 12.0104 25.9791 14.5739 25.9791C14.5739 29.2234 14.5739 32.4256 14.5739 35.6614Z" fill="white"/>
</g>
<defs>
<clipPath id="clip0_142_3535">
<rect width="50.395" height="50" fill="white"/>
</clipPath>
</defs>
</svg>
