<svg width="51" height="50" viewBox="0 0 51 50" fill="none" xmlns="http://www.w3.org/2000/svg">
<g id="Frame" clip-path="url(#clip0_142_3620)">
<path id="Vector" d="M41.7579 50C37.2696 50.0134 33.5292 46.2731 33.5292 41.7981C33.5292 37.2429 37.2295 33.5293 41.7446 33.5293C46.3265 33.5293 50.0133 37.2162 50.0133 41.7981C50.0267 46.3132 46.3131 50 41.7579 50ZM40.0614 41.9717C39.9412 41.1168 39.821 40.3821 39.7141 39.6474C39.6473 39.2199 39.4603 38.8993 39.0596 38.7123C38.6722 38.5386 38.3115 38.5787 37.9775 38.8192C37.5367 39.1264 37.4699 39.5672 37.5367 40.0615C37.7638 41.5977 37.9909 43.1205 38.218 44.6567C38.2848 45.151 38.5252 45.4849 39.0061 45.6452C39.487 45.7922 39.8878 45.6452 40.2084 45.2712C40.529 44.8972 40.8496 44.4964 41.1702 44.1224C41.6243 43.5881 41.9316 43.5747 42.3858 44.109C42.7331 44.5098 43.067 44.9373 43.4144 45.338C43.7216 45.6853 44.0956 45.7922 44.5498 45.6586C44.9773 45.525 45.2712 45.2445 45.3379 44.7903C45.3914 44.4831 45.4315 44.1625 45.4849 43.8552C45.6719 42.5595 45.8723 41.2504 46.0326 39.9546C46.1127 39.3134 45.8589 38.9127 45.3513 38.7123C44.6567 38.4451 43.9754 38.886 43.8418 39.7008C43.7216 40.4355 43.6281 41.1569 43.5079 41.9984C43.2006 41.6378 42.9735 41.3572 42.7331 41.0901C42.132 40.4088 41.424 40.4088 40.8229 41.1034C40.5824 41.3439 40.3687 41.6111 40.0614 41.9717Z" fill="white"/>
<path id="Vector_2" d="M8.25537 2.22164e-05C12.8373 0.0267388 16.5108 3.72698 16.4841 8.30886C16.4573 12.824 12.717 16.5108 8.17522 16.4841C3.67348 16.4574 -0.0267559 12.7171 -3.93332e-05 8.21536C0.0266772 3.66019 3.72692 -0.0266943 8.25537 2.22164e-05ZM10.032 7.44058C10.0187 7.2402 10.0187 7.11998 10.0053 6.9864C9.95187 6.27841 9.48433 5.81087 8.77634 5.79751C7.32029 5.78415 5.8776 5.78415 4.42155 5.79751C3.71356 5.81087 3.2193 6.29177 3.20595 6.9864C3.19259 7.92147 3.19259 8.85655 3.20595 9.79163C3.2193 10.4729 3.7002 10.9805 4.36811 10.9805C5.85088 11.0072 7.33365 11.0072 8.81642 10.9805C9.49769 10.9672 9.95187 10.4863 9.99195 9.80499C10.0053 9.68477 10.0053 9.55118 10.0187 9.35081C10.6198 9.71148 11.1675 10.0454 11.7285 10.366C12.343 10.7134 12.7838 10.4729 12.7838 9.76492C12.7972 8.86991 12.7838 7.96155 12.7838 7.06655C12.7838 6.29177 12.3564 6.06468 11.6751 6.45207C11.1541 6.77266 10.6198 7.09326 10.032 7.44058Z" fill="white"/>
<path id="Vector_3" d="M2.27408e-05 41.7446C0.0267393 37.1894 3.7537 33.4892 8.25543 33.5293C12.8373 33.5693 16.5108 37.2829 16.4841 41.8381C16.4574 46.3799 12.7037 50.0401 8.12185 50C3.64683 49.9599 -0.0266938 46.233 2.27408e-05 41.7446ZM5.65057 42.2121C5.42348 42.1988 5.27654 42.1854 5.1296 42.1854C4.20788 42.1721 3.45981 42.7999 3.32623 43.7216C3.20601 44.5765 3.78041 45.4048 4.6487 45.6318C5.69065 45.9124 6.74595 45.1777 6.81274 44.0823C6.86617 43.2006 6.8261 42.319 6.8261 41.3973C7.05319 41.3973 7.22685 41.3973 7.38715 41.3973C8.57603 41.3973 9.77828 41.3973 10.9939 41.3973C10.9939 41.7179 10.9939 41.985 10.9939 42.2522C10.6466 42.2923 10.326 42.2789 10.0321 42.3591C9.21723 42.5995 8.74969 43.4411 8.90999 44.296C9.07029 45.0975 9.81835 45.6586 10.6733 45.6051C11.5015 45.5517 12.1961 44.8971 12.2095 44.0556C12.2362 42.3591 12.2228 40.6626 12.2228 38.9527C12.2228 38.0577 11.7553 37.6035 10.8603 37.6035C9.64469 37.6035 8.42909 37.6035 7.21349 37.6035C6.05132 37.6035 5.65057 38.0043 5.65057 39.1664C5.65057 40.1683 5.65057 41.1568 5.65057 42.2121Z" fill="white"/>
<path id="Vector_4" d="M50.0134 8.25544C49.9866 12.8106 46.2597 16.5242 41.758 16.4841C37.1761 16.4441 33.5025 12.7305 33.5293 8.17529C33.556 3.63348 37.2963 -0.0266873 41.8915 0.0133875C46.3666 0.040104 50.0401 3.78042 50.0134 8.25544ZM44.3361 14.7609C42.7465 12.5568 41.1835 10.3928 39.6206 8.21536C39.5004 8.04171 39.3802 7.85469 39.2332 7.69439C38.8058 7.17342 38.218 7.06655 37.6302 7.42723C36.762 7.96156 35.907 8.49589 35.0655 9.0703C34.9452 9.15044 34.8384 9.43097 34.8784 9.57791C35.1723 11.1141 35.907 12.4099 37.0692 13.4652C39.0195 15.2418 42.0785 15.8029 44.3361 14.7609ZM42.7064 10.4328C43.1873 11.1008 43.6281 11.7152 44.0823 12.3431C44.5365 12.9709 44.9907 13.5987 45.4448 14.2266C46.8875 13.3717 48.0898 11.8221 48.5039 10.2859C48.544 10.139 48.5039 9.89851 48.4104 9.81836C47.7959 9.31074 47.1547 8.81649 46.5135 8.34895C46.0727 8.04171 45.5383 8.05507 45.1242 8.40238C44.3094 9.05694 43.5346 9.73821 42.7064 10.4328ZM42.3991 6.39864C43.214 6.412 43.8953 5.74409 43.922 4.92923C43.9353 4.10102 43.2541 3.39303 42.4125 3.39303C41.5977 3.39303 40.9164 4.0743 40.9164 4.88916C40.9164 5.70401 41.5843 6.38528 42.3991 6.39864Z" fill="white"/>
<path id="Vector_5" d="M27.478 12.156C28.707 12.156 29.642 12.864 30.1096 14.1464C31.579 18.1539 33.0484 22.1747 34.5178 26.1822C34.7983 26.9436 35.0788 27.705 35.346 28.4798C35.8403 29.9091 35.1456 31.4587 33.7697 31.9663C32.3538 32.5007 30.7775 31.8194 30.2432 30.3767C28.4398 25.4876 26.6498 20.6118 24.8998 15.7093C24.2586 13.9594 25.6078 12.156 27.478 12.156Z" fill="white"/>
<path id="Vector_6" d="M27.2776 30.2565C25.6345 30.2966 24.0983 30.8042 22.5755 31.3252C21.7339 31.6191 21.6137 31.5523 21.2931 30.6973C20.1442 27.5448 18.9821 24.3789 17.8333 21.2263C17.5795 20.5183 17.673 20.318 18.3542 20.0508C20.1175 19.3695 21.8407 18.6482 23.2701 17.3524C23.6842 16.9784 24.1117 17.1387 24.3254 17.7398C25.0868 19.797 25.8349 21.8675 26.5963 23.9247C27.2108 25.6078 27.8253 27.3043 28.4397 28.9875C28.8138 30.0161 28.6401 30.2565 27.5314 30.2432C27.4512 30.2565 27.3711 30.2565 27.2776 30.2565Z" fill="white"/>
<path id="Vector_7" d="M24.9933 48.8244C22.2148 48.8244 19.5298 48.3569 16.9116 47.4085C16.3238 47.1947 16.2303 46.9142 16.4841 46.3398C16.8047 45.5917 17.1119 44.8437 17.3791 44.0689C17.5928 43.4678 17.8199 43.3075 18.4077 43.5212C20.9858 44.4296 23.6441 44.7902 26.3692 44.6032C28.1192 44.483 29.829 44.1357 31.4854 43.5479C32.2201 43.2941 32.3938 43.4143 32.6476 44.149C32.8881 44.857 33.1686 45.5517 33.4758 46.2329C33.7964 46.9276 33.7296 47.1814 33.0083 47.4352C30.4168 48.3703 27.7451 48.8378 24.9933 48.8244Z" fill="white"/>
<path id="Vector_8" d="M25.354 5.34334C22.7759 5.34334 20.6118 5.71737 18.5279 6.43872C17.7932 6.69252 17.6196 6.5723 17.3658 5.82424C17.112 5.08953 16.8181 4.36818 16.4975 3.64684C16.2437 3.05907 16.3238 2.77855 16.9116 2.56482C22.2549 0.681303 27.6116 0.667944 32.9682 2.51139C33.7564 2.77855 33.8098 3.019 33.4625 3.78042C33.1419 4.46169 32.8881 5.15632 32.6476 5.86431C32.4205 6.53222 32.2068 6.67916 31.5522 6.45207C29.4283 5.71737 27.2375 5.3567 25.354 5.34334Z" fill="white"/>
<path id="Vector_9" d="M48.8378 25.0067C48.8378 27.7585 48.3703 30.4435 47.4486 33.035C47.2081 33.7029 46.941 33.783 46.3131 33.5025C45.5651 33.1686 44.817 32.8747 44.0422 32.6075C43.4812 32.4071 43.3209 32.1667 43.5212 31.5923C44.443 29.0008 44.7903 26.3291 44.6033 23.5907C44.483 21.8541 44.1224 20.171 43.5613 18.5279C43.3075 17.7798 43.4277 17.6195 44.1491 17.3657C44.8838 17.1119 45.6051 16.818 46.3131 16.4974C46.9143 16.2303 47.1814 16.3104 47.4085 16.9383C48.3703 19.5431 48.8512 22.2415 48.8378 25.0067Z" fill="white"/>
<path id="Vector_10" d="M1.17551 25.02C1.16215 22.2682 1.62969 19.5832 2.55141 16.9917C2.80522 16.2971 3.05903 16.2169 3.71358 16.5108C4.43493 16.8314 5.18299 17.1253 5.93105 17.3924C6.53218 17.6062 6.67912 17.8333 6.46538 18.4344C4.94254 22.8293 4.94254 27.2108 6.46538 31.6056C6.66576 32.18 6.51882 32.4205 5.95777 32.6209C5.18299 32.9014 4.40821 33.2086 3.64679 33.5292C3.05903 33.783 2.79186 33.7029 2.57813 33.1018C1.64305 30.4835 1.17551 27.7985 1.17551 25.02Z" fill="white"/>
<path id="Vector_11" d="M12.3965 25.9818C12.49 24.1117 13.4918 22.335 15.5089 21.1862C16.1368 20.8256 16.444 20.9458 16.6978 21.6003C17.8734 24.8197 19.0489 28.0257 20.211 31.245C20.4515 31.8996 20.3046 32.1667 19.6366 32.327C15.9364 33.1552 12.3831 30.2565 12.3965 25.9818Z" fill="white"/>
<path id="Vector_12" d="M26.062 34.7716C26.062 36.3879 25.1803 37.4566 23.8979 37.7238C22.709 37.9642 21.44 37.3097 20.9591 36.1608C20.6919 35.5196 20.4649 34.8517 20.2244 34.1972C20.0641 33.7296 20.1977 33.4625 20.6519 33.2888C21.8541 32.848 23.0697 32.4205 24.272 32.0198C24.8197 31.8328 25.0735 31.9663 25.2605 32.5274C25.5811 33.369 25.875 34.2239 26.062 34.7716Z" fill="white"/>
<path id="Vector_13" d="M6.87952 38.8191C8.25542 38.8191 9.6046 38.8191 10.9805 38.8191C10.9805 39.2733 10.9805 39.7007 10.9805 40.1683C9.61796 40.1683 8.25542 40.1683 6.87952 40.1683C6.87952 39.7141 6.87952 39.2733 6.87952 38.8191Z" fill="white"/>
</g>
<defs>
<clipPath id="clip0_142_3620">
<rect width="50.0134" height="50" fill="white"/>
</clipPath>
</defs>
</svg>
