<svg width="50" height="50" viewBox="0 0 50 50" fill="none" xmlns="http://www.w3.org/2000/svg">
<g id="Frame" clip-path="url(#clip0_142_3545)">
<path id="Vector" d="M33.5026 50C32.4349 49.7787 31.3542 49.6354 30.3255 49.336C24.4922 47.6693 20.1042 42.3438 19.5313 36.3021C18.8411 29.0365 23.0729 22.487 29.974 20.1823C38.4115 17.3568 47.6563 22.5651 49.6094 31.25C49.7786 32.0182 49.8828 32.8125 50.013 33.5938C50.013 34.349 50.013 35.0912 50.013 35.8464C49.987 35.9896 49.9479 36.1198 49.9219 36.263C49.3099 42.4479 44.8828 47.7474 38.8932 49.4011C37.9037 49.6745 36.862 49.8047 35.8464 50C35.0651 50 34.2839 50 33.5026 50ZM36.1458 26.5886C36.1458 26.5625 36.1328 26.4974 36.1328 26.4323C36.0807 25.4818 35.5208 24.8828 34.6745 24.8828C33.8281 24.8828 33.2292 25.4818 33.2161 26.4323C33.2161 26.7318 33.0599 26.8099 32.8385 26.9011C30.8984 27.7474 29.9089 30 30.5729 31.9792C30.9635 33.138 31.8359 33.8021 32.8776 34.2969C33.763 34.7136 34.6745 35.0651 35.5729 35.4297C36.0938 35.638 36.4583 35.9896 36.5234 36.5625C36.6406 37.5391 35.8724 38.5026 34.8958 38.5807C33.9844 38.6589 33.125 38.5677 32.3307 38.0208C31.5885 37.513 30.6771 37.7344 30.2474 38.4375C29.8047 39.1537 30.013 40.0521 30.8073 40.4948C31.5495 40.9115 32.3438 41.224 33.1901 41.6146C33.1901 41.6016 33.2031 41.7188 33.2031 41.8229C33.2552 42.6693 33.8542 43.2813 34.6615 43.2813C35.4688 43.2813 36.1198 42.6693 36.1198 41.836C36.1198 41.4583 36.224 41.2761 36.5755 41.1198C39.4401 39.8698 40.3646 36.224 38.4245 33.9583C37.7604 33.1901 36.875 32.7995 35.9635 32.4479C35.1953 32.1485 34.4531 31.7839 33.7109 31.4193C33.3333 31.237 33.2422 30.8985 33.3203 30.5078C33.4115 29.987 33.75 29.6224 34.2578 29.5052C34.9219 29.349 35.5339 29.4531 36.1198 29.8307C36.888 30.3255 37.7734 30.1563 38.2292 29.4662C38.6979 28.75 38.4896 27.8516 37.6823 27.3698C37.2005 27.0703 36.6797 26.862 36.1458 26.5886Z" fill="white"/>
<path id="Vector_2" d="M20.8984 4.06895e-05C21.888 0.156291 22.8906 0.273478 23.8802 0.481812C31.224 2.01827 37.3307 8.20317 38.776 15.5469C38.8672 16.0026 38.9453 16.4714 39.0365 16.9401C38.0599 16.7969 37.1354 16.6797 36.2109 16.5365C36.1068 16.5235 35.9766 16.3412 35.9375 16.211C35.7943 15.7422 35.6901 15.2735 35.5729 14.7787C33.3333 14.7787 31.1328 14.7787 28.9193 14.7787C29.0234 15.5339 29.1406 16.2761 29.2187 17.0183C29.2318 17.1355 29.1406 17.3438 29.0495 17.3829C28.2031 17.7344 27.3307 18.073 26.4714 18.4115C26.3021 17.2136 26.1198 16.0026 25.9375 14.7787C21.7057 14.7787 17.5391 14.7787 13.3333 14.7787C12.6823 17.5782 12.5911 20.3907 13.0859 23.2552C15.5469 23.2552 17.9818 23.2552 20.5339 23.2552C20.3255 23.5417 20.1562 23.75 20.013 23.9714C19.6094 24.5834 19.2057 25.1954 18.8411 25.8204C18.6849 26.0938 18.5156 26.198 18.1901 26.198C16.7448 26.1849 15.2995 26.1849 13.763 26.1849C13.9974 26.849 14.1667 27.474 14.4271 28.0599C15.0651 29.4922 15.7552 30.9115 16.4193 32.3438C16.5104 32.5391 16.6016 32.7735 16.5885 32.9818C16.3932 34.961 16.5365 36.9141 16.9792 38.8412C16.9922 38.8802 16.9661 38.9323 16.9661 39.0105C15.4818 38.8412 14.0495 38.4896 12.6823 37.9297C6.36719 35.3646 2.29167 30.7943 0.559896 24.1797C0.325521 23.2552 0.247396 22.2917 0.0911458 21.3412C0.0651042 21.1849 0.0390625 21.0287 0 20.8724C0 19.987 0 19.1146 0 18.2292C0.0911458 17.5912 0.182292 16.9532 0.286458 16.3151C1.58854 8.51567 7.57812 2.17452 15.2995 0.468791C16.276 0.247436 17.2786 0.14327 18.2682 -0.026001C19.1406 4.06895e-05 20.026 4.06895e-05 20.8984 4.06895e-05ZM25 11.7969C24.9479 11.6407 24.9219 11.5235 24.8828 11.4063C23.8021 8.51567 22.3437 5.82035 20.4948 3.3464C20.0521 2.74744 19.1406 2.74744 18.7109 3.33337C16.9271 5.72921 15.4948 8.32035 14.4401 11.1198C14.362 11.3412 14.2839 11.5625 14.1927 11.7969C17.8385 11.7969 21.4062 11.7969 25 11.7969ZM3.33333 23.2292C5.59896 23.2292 7.82552 23.2292 10.1042 23.2292C9.70052 20.3907 9.76562 17.5782 10.3255 14.7657C8.07292 14.7657 5.88542 14.7657 3.65885 14.7657C2.8125 17.5521 2.70833 20.3646 3.33333 23.2292ZM4.32292 26.198C6.17188 30.8334 10.7292 34.5443 14.8828 35.5339C13.0469 32.5912 11.6146 29.5183 10.7161 26.198C8.58073 26.198 6.47135 26.198 4.32292 26.198ZM24.2839 3.64587C25.9375 6.25004 27.2135 8.94535 28.125 11.7969C30.1823 11.7969 32.2135 11.7969 34.2448 11.7969C32.6693 8.30733 28.5677 4.75264 24.2839 3.64587ZM4.85677 11.8099C6.91406 11.8099 8.86719 11.8099 10.8203 11.7969C10.9505 11.7969 11.1328 11.6016 11.1849 11.4584C12.0703 8.82817 13.2422 6.34119 14.7135 3.98442C14.7786 3.89327 14.8177 3.77608 14.8958 3.60681C10.4297 5.02608 7.14844 7.72139 4.85677 11.8099Z" fill="white"/>
</g>
<defs>
<clipPath id="clip0_142_3545">
<rect width="50" height="50" fill="white"/>
</clipPath>
</defs>
</svg>
