<svg width="20" height="20" viewBox="0 0 20 20" fill="none" xmlns="http://www.w3.org/2000/svg">
<g id="Frame" clip-path="url(#clip0_184_3949)">
<path id="Vector" d="M15.3181 20C14.4654 19.9225 13.72 19.7376 12.9866 19.4812C10.8518 18.7359 8.97942 17.5433 7.25015 16.1121C4.85897 14.1324 2.86136 11.8128 1.39445 9.05786C0.756407 7.85929 0.279364 6.60109 0.0348802 5.25345C-0.0426392 4.81218 -0.000897944 4.43651 0.261475 4.05488C1.17382 2.75494 2.16368 1.52059 3.33244 0.441284C3.45766 0.327987 3.59481 0.220652 3.73792 0.125244C4.01818 -0.0596103 4.209 -0.0476842 4.46541 0.172948C4.58467 0.274319 4.69201 0.387617 4.78145 0.512841C5.69379 1.80085 6.54054 3.13061 7.21437 4.55577C7.57811 5.32501 7.54233 5.45619 6.90429 6.02864C6.48092 6.40431 6.0635 6.77998 5.63416 7.14969C5.5149 7.25106 5.50298 7.35244 5.54472 7.50151C6.14102 9.48124 7.25611 11.1211 8.83035 12.4449C9.90966 13.3512 11.1202 14.043 12.4916 14.4186C12.6228 14.4544 12.7123 14.4425 12.8017 14.3351C13.1595 13.9297 13.5233 13.5242 13.881 13.1187C14.5012 12.4091 14.6383 12.3673 15.4791 12.7728C16.8626 13.4407 18.1625 14.2457 19.4028 15.1461C20.1184 15.6589 20.1422 15.9571 19.5519 16.6011C18.4189 17.8354 17.1368 18.8909 15.7355 19.8032C15.5865 19.9046 15.4195 19.9583 15.3181 20Z" fill="white"/>
<path id="Vector_2" d="M10.6914 1.41918C10.6914 0.93617 10.6914 0.48298 10.6914 0.0297901C15.3128 -0.161027 20.0057 3.88787 19.952 9.26652C19.4869 9.26652 19.0277 9.26652 18.5447 9.26652C18.497 7.11387 17.7516 5.2534 16.2311 3.73283C14.7165 2.21226 12.856 1.46688 10.6914 1.41918Z" fill="white"/>
<path id="Vector_3" d="M16.38 9.27841C15.909 9.27841 15.4558 9.27841 15.0085 9.27841C14.7342 6.6845 13.3091 5.2474 10.6973 4.96118C10.6973 4.51992 10.6973 4.06076 10.6973 3.59565C13.7086 3.50024 16.4516 6.14186 16.38 9.27841Z" fill="white"/>
</g>
<defs>
<clipPath id="clip0_184_3949">
<rect width="19.9702" height="20" fill="white"/>
</clipPath>
</defs>
</svg>
