<svg width="26" height="26" viewBox="0 0 26 26" fill="none" xmlns="http://www.w3.org/2000/svg">
<g id="Frame" clip-path="url(#clip0_184_3954)">
<path id="Vector" d="M19.9155 25.9999C18.807 25.8992 17.838 25.6589 16.8845 25.3255C14.1093 24.3565 11.6752 22.8061 9.42714 20.9457C6.31861 18.372 3.72172 15.3565 1.81474 11.7751C0.985282 10.217 0.365127 8.58134 0.0472974 6.8294C-0.0534778 6.25575 0.000785798 5.76738 0.341871 5.27126C1.52792 3.58134 2.81474 1.97668 4.33412 0.573584C4.49691 0.426297 4.6752 0.286762 4.86125 0.162731C5.22559 -0.0775788 5.47365 -0.0620749 5.80699 0.224747C5.96203 0.35653 6.10156 0.503817 6.21784 0.666607C7.40389 2.34103 8.50466 4.06971 9.38063 5.92242C9.8535 6.92242 9.80699 7.09296 8.97753 7.83715C8.42714 8.32552 7.88451 8.81389 7.32637 9.29451C7.17133 9.4263 7.15582 9.55808 7.21009 9.75188C7.98528 12.3255 9.43489 14.4573 11.4814 16.1782C12.8845 17.3565 14.4581 18.2558 16.2411 18.7441C16.4116 18.7906 16.5279 18.7751 16.6442 18.6356C17.1093 18.1085 17.5822 17.5813 18.0473 17.0542C18.8535 16.1317 19.0318 16.0775 20.1248 16.6046C21.9233 17.4728 23.6132 18.5193 25.2256 19.6899C26.1558 20.3565 26.1868 20.7441 25.4194 21.5813C23.9465 23.186 22.2799 24.5581 20.4582 25.7441C20.2644 25.8759 20.0473 25.9457 19.9155 25.9999Z" fill="#1D62C8"/>
<path id="Vector_2" d="M13.8984 1.84501C13.8984 1.21711 13.8984 0.62796 13.8984 0.0388125C19.9062 -0.209249 26.007 5.05432 25.9372 12.0466C25.3325 12.0466 24.7356 12.0466 24.1077 12.0466C24.0457 9.24811 23.0767 6.82951 21.1 4.85277C19.131 2.87602 16.7124 1.90703 13.8984 1.84501Z" fill="#1D62C8"/>
<path id="Vector_3" d="M21.2938 12.062C20.6814 12.062 20.0923 12.062 19.5109 12.062C19.1543 8.68991 17.3016 6.82169 13.9062 6.44959C13.9062 5.87595 13.9062 5.27905 13.9062 4.6744C17.821 4.55037 21.3869 7.98448 21.2938 12.062Z" fill="#1D62C8"/>
</g>
<defs>
<clipPath id="clip0_184_3954">
<rect width="25.9612" height="26" fill="white"/>
</clipPath>
</defs>
</svg>
