<svg width="26" height="26" viewBox="0 0 26 26" fill="none" xmlns="http://www.w3.org/2000/svg">
<g id="Frame" clip-path="url(#clip0_142_3448)">
<path id="Vector" d="M19.9147 26.0001C18.8062 25.8993 17.8372 25.659 16.8837 25.3256C14.1085 24.3567 11.6744 22.8063 9.42635 20.9458C6.31782 18.3722 3.72092 15.3567 1.81395 11.7753C0.984488 10.2171 0.364333 8.58146 0.046504 6.82952C-0.0542712 6.25588 -7.65896e-06 5.7675 0.341078 5.27138C1.52712 3.58146 2.81395 1.97681 4.33333 0.573706C4.49612 0.426419 4.67441 0.286884 4.86046 0.162853C5.2248 -0.0774567 5.47286 -0.0619528 5.80619 0.224869C5.96123 0.356652 6.10077 0.503939 6.21705 0.666729C7.40309 2.34115 8.50387 4.06983 9.37984 5.92254C9.85271 6.92254 9.80619 7.09309 8.97674 7.83727C8.42635 8.32564 7.88371 8.81402 7.32557 9.29464C7.17053 9.42642 7.15503 9.5582 7.20929 9.752C7.98449 12.3256 9.4341 14.4574 11.4806 16.1784C12.8837 17.3567 14.4574 18.2559 16.2403 18.7442C16.4108 18.7908 16.5271 18.7753 16.6434 18.6357C17.1085 18.1086 17.5814 17.5815 18.0465 17.0543C18.8527 16.1318 19.031 16.0776 20.124 16.6047C21.9225 17.4729 23.6124 18.5194 25.2248 19.69C26.155 20.3567 26.186 20.7442 25.4186 21.5815C23.9457 23.1861 22.2791 24.5582 20.4574 25.7442C20.2636 25.876 20.0465 25.9458 19.9147 26.0001Z" fill="white"/>
<path id="Vector_2" d="M13.8992 1.84489C13.8992 1.21698 13.8992 0.627838 13.8992 0.0386905C19.907 -0.209372 26.0078 5.05419 25.938 12.0464C25.3333 12.0464 24.7364 12.0464 24.1085 12.0464C24.0465 9.24799 23.0775 6.82939 21.1008 4.85264C19.1318 2.8759 16.7132 1.90691 13.8992 1.84489Z" fill="white"/>
<path id="Vector_3" d="M21.2946 12.062C20.6822 12.062 20.093 12.062 19.5116 12.062C19.155 8.68991 17.3023 6.82169 13.907 6.44959C13.907 5.87595 13.907 5.27905 13.907 4.6744C17.8217 4.55037 21.3876 7.98448 21.2946 12.062Z" fill="white"/>
</g>
<defs>
<clipPath id="clip0_142_3448">
<rect width="25.9612" height="26" fill="white"/>
</clipPath>
</defs>
</svg>
