<svg width="27" height="32" viewBox="0 0 27 32" fill="none" xmlns="http://www.w3.org/2000/svg">
<path id="Vector" d="M14.4108 0C15.0076 0.0834795 15.6086 0.141501 16.2006 0.254583C19.2651 0.841899 21.8719 2.23263 23.8144 4.72162C25.5177 6.90393 26.1998 9.40298 26.0121 12.1554C25.8469 14.5746 25.1797 16.8327 23.7736 18.822C21.6357 21.8473 18.7281 23.4192 14.9804 23.2624C13.7599 23.2186 12.5874 22.7765 11.6418 22.0036C11.3375 21.7579 11.0859 21.4483 10.791 21.1475C10.6247 21.7473 10.4636 22.363 10.2842 22.9728C9.89288 24.299 9.56606 25.6513 9.07644 26.9396C8.4086 28.6992 7.37428 30.274 6.30385 31.8163C6.23434 31.9123 6.13075 31.9779 6.01434 31.9999C5.96342 32.0052 5.85448 31.8465 5.83672 31.7512C5.49096 29.5944 5.22987 27.4239 5.60523 25.2522C5.8385 23.9012 6.23044 22.5779 6.55784 21.2435C7.04214 19.2725 7.53651 17.3039 8.01429 15.3318C8.04474 15.1731 8.03018 15.009 7.97226 14.8582C7.33935 13.1175 7.20732 11.371 8.03146 9.66408C8.66851 8.34795 9.71348 7.51907 11.2398 7.4948C12.6459 7.47289 13.6518 8.48886 13.7264 9.93228C13.7708 10.8204 13.5624 11.6705 13.312 12.5101C12.9256 13.7952 12.5309 15.078 12.1279 16.3584C11.4115 18.6378 13.1344 20.2435 15.1698 20.1884C16.9229 20.1416 18.2935 19.324 19.3805 17.9943C20.4675 16.6645 21.0584 15.1275 21.3272 13.4544C21.6297 11.5723 21.4835 9.72802 20.7097 7.97199C19.602 5.46228 17.6215 4.04727 14.9573 3.57837C12.8514 3.20715 10.7656 3.32911 8.80705 4.24561C5.58687 5.75298 3.87999 8.3219 3.75033 11.8772C3.69112 13.4645 4.17246 14.9209 5.20145 16.1642C5.37137 16.3697 5.47024 16.5787 5.40156 16.8504C5.22928 17.526 5.07238 18.2056 4.88411 18.877C4.73491 19.4099 4.5715 19.472 4.06944 19.2322C2.86758 18.6568 2.0091 17.7166 1.37323 16.5775C-0.562187 13.1063 -0.376875 9.61612 1.45849 6.19643C3.0298 3.27465 5.58628 1.54999 8.72416 0.631128C9.82633 0.31377 10.9604 0.119965 12.1054 0.0532848C12.2084 0.0414727 12.3106 0.023681 12.4115 0L14.4108 0Z" fill="#1D62C8"/>
</svg>
