<svg width="61" height="60" viewBox="0 0 61 60" fill="none" xmlns="http://www.w3.org/2000/svg">
<g id="Frame" clip-path="url(#clip0_294_794)">
<path id="Vector" d="M28.1211 0C29.3737 0 30.6263 0 31.8789 0C32.0512 0.0313152 32.2234 0.0782881 32.3956 0.0939457C33.5543 0.250522 34.7286 0.344468 35.8716 0.579332C51.8111 3.74217 62.3487 19.1023 59.5616 35.1044C57.1503 48.9927 45.4384 59.358 31.3779 59.9687C23.9405 60.2975 17.2234 58.1524 11.3831 53.5021C5.43323 48.7578 1.76934 42.62 0.438446 35.1044C0.250554 34.0397 0.140951 32.9436 -0.015625 31.8633C-0.015625 30.6106 -0.015625 29.358 -0.015625 28.1054C0.0783207 27.3852 0.140951 26.6806 0.250555 25.9603C1.11172 19.8539 3.56997 14.4833 7.70358 9.91127C12.3382 4.82255 18.0689 1.62839 24.8956 0.454071C25.9604 0.26618 27.0564 0.156576 28.1211 0ZM41.0543 18.0532C40.9134 17.928 40.7881 17.7871 40.6316 17.6618C36.7954 14.4207 32.3487 13.2307 27.4635 14.1858C20.9186 15.4541 16.5345 19.4154 14.8121 25.8351C13.0898 32.239 14.8904 37.8288 19.8852 42.2286C23.69 45.5793 28.2307 46.644 33.2098 45.8925C36.6858 45.3601 39.6764 43.8727 42.0094 41.1952C44.9844 37.7818 45.9865 33.7109 45.7673 29.2797C45.7359 28.5125 45.6107 27.7453 45.5324 27.0094C40.4123 27.0094 35.4019 27.0094 30.3915 27.0094C30.3915 29.1075 30.3915 31.1743 30.3915 33.2881C33.3038 33.2881 36.1848 33.2881 39.0971 33.2881C38.8622 34.572 38.3925 35.6837 37.6096 36.6232C35.2923 39.3946 32.1921 40.2244 28.7944 39.6451C22.2339 38.5334 18.7579 31.3152 21.8111 25.428C24.5199 20.2296 31.143 18.5386 35.7151 21.8894C36.0126 22.1086 36.2944 22.3434 36.5449 22.547C38.048 21.0595 39.5199 19.5877 41.0543 18.0532Z" fill="url(#paint0_linear_294_794)"/>
</g>
<defs>
<linearGradient id="paint0_linear_294_794" x1="26.87" y1="63.3436" x2="30.0294" y2="12.2489" gradientUnits="userSpaceOnUse">
<stop stop-color="#1D62C8"/>
<stop offset="1" stop-color="#80D5FF"/>
</linearGradient>
<clipPath id="clip0_294_794">
<rect width="60.0157" height="60" fill="white"/>
</clipPath>
</defs>
</svg>
