<svg width="21" height="24" viewBox="0 0 21 24" fill="none" xmlns="http://www.w3.org/2000/svg">
<path id="Vector" d="M7.27003 24C6.7394 23.9219 6.20065 23.8787 5.6794 23.7594C2.72878 23.0844 0.425651 20.5163 0.0575263 17.5163C-0.433724 13.5163 2.27128 9.90625 6.26065 9.24375C7.05378 9.1125 8.09128 9.11563 8.59628 9.25438V13.1806C8.39753 13.1425 8.21065 13.0981 8.0219 13.0712C5.79315 12.7544 3.87878 14.4688 3.9519 16.7144C4.0094 18.4875 5.43503 19.95 7.25065 20.0994C8.98315 20.2419 10.6413 18.9806 10.9588 17.2631C11.0101 16.9632 11.0339 16.6592 11.03 16.355C11.0371 11.0217 11.0413 5.68667 11.0425 0.35C11.0425 0.233125 11.0532 0.116875 11.0594 0H14.9425C15.0275 3.32312 17.4963 5.86438 20.785 6.00437C20.9869 6.01312 21.0088 6.09312 21.0082 6.25875C21.0032 7.39125 21.0082 8.52375 21.0082 9.65625V9.90625C18.755 9.89688 16.7644 9.20375 14.9488 7.85625V8.14625C14.9567 10.8883 14.9638 13.6302 14.97 16.3719C14.9699 16.7543 14.9471 17.1365 14.9019 17.5163C14.5344 20.5881 12.1132 23.2037 9.07753 23.8081C8.63628 23.8956 8.18628 23.9369 7.74003 23.9994L7.27003 24Z" fill="white"/>
</svg>
