<svg width="18" height="20" viewBox="0 0 18 20" fill="none" xmlns="http://www.w3.org/2000/svg">
<g id="tt 1" clip-path="url(#clip0_152_26553)">
<path id="Vector" d="M6.46511 20C6.02292 19.9349 5.57396 19.899 5.13959 19.7995C2.68073 19.237 0.761463 17.0969 0.454692 14.5969C0.0453171 11.2635 2.29948 8.25521 5.62396 7.70312C6.2849 7.59375 7.14948 7.59635 7.57032 7.71198V10.9839C7.40469 10.9521 7.24896 10.9151 7.09167 10.8927C5.23438 10.6286 3.63907 12.0573 3.7 13.9286C3.74792 15.4062 4.93594 16.625 6.44896 16.7495C7.89271 16.8682 9.27448 15.8172 9.53907 14.3859C9.5818 14.136 9.60167 13.8827 9.59844 13.6292C9.60435 9.18472 9.60782 4.73889 9.60886 0.291667C9.60886 0.194271 9.61771 0.0973958 9.62292 0H12.8589C12.9297 2.76927 14.987 4.88698 17.7276 5.00365C17.8958 5.01094 17.9141 5.0776 17.9135 5.21562C17.9094 6.15937 17.9135 7.10312 17.9135 8.04688V8.25521C16.0359 8.2474 14.3771 7.66979 12.8641 6.54687V6.78854C12.8707 9.07361 12.8766 11.3585 12.8818 13.6432C12.8816 13.962 12.8627 14.2804 12.825 14.5969C12.5188 17.1568 10.501 19.3365 7.97136 19.8401C7.60365 19.913 7.22865 19.9474 6.85678 19.9995L6.46511 20Z" fill="#222222"/>
</g>
<defs>
<clipPath id="clip0_152_26553">
<rect width="17.5521" height="20" fill="white" transform="translate(0.333338)"/>
</clipPath>
</defs>
</svg>
