<svg width="60" height="60" viewBox="0 0 60 60" fill="none" xmlns="http://www.w3.org/2000/svg">
<g id="Frame" clip-path="url(#clip0_294_745)">
<path id="Vector" d="M30 0C46.5586 0 60.0286 13.47 60 30.0286C60 46.5872 46.5014 60.0286 29.9428 60C13.4414 59.9714 0 46.53 0 30.0286C0 13.47 13.4414 0 30 0ZM23.7083 30.286C23.9371 30.429 23.9943 30.4576 24.0229 30.4862C27.2259 33.6892 30.429 36.8637 33.632 40.0667C34.49 40.9247 35.4909 41.6683 36.6921 41.2679C37.5786 40.9819 38.4652 40.3527 39.0372 39.6091C41.1249 37.0067 43.0696 34.2612 45.2145 31.4299C45.3289 32.0019 45.3861 32.3737 45.4719 32.7455C45.8437 34.204 47.1306 35.205 48.5891 35.1478C50.1049 35.0906 51.449 33.9466 51.5062 32.3737C51.6492 28.7703 51.735 25.1382 51.7064 21.5348C51.7064 19.7331 49.9905 18.2459 48.3031 18.6749C44.6711 19.5615 41.0677 20.5624 37.4928 21.6492C36.0057 22.1068 35.3479 23.6797 35.7197 25.224C36.0915 26.7112 37.4356 27.6549 39.0086 27.4833C39.4948 27.4261 39.9809 27.3117 40.6673 27.1973C39.0086 29.3994 37.4928 31.4013 35.9199 33.5176C35.5195 33.1459 35.205 32.8599 34.919 32.5739C32.1449 29.7998 29.3708 27.0257 26.5968 24.2517C24.5663 22.2212 23.0505 22.2212 20.9914 24.2803C17.8456 27.4261 14.7283 30.5434 11.5825 33.6892C10.7817 34.49 9.98093 35.2621 9.20877 36.0915C8.00763 37.4356 8.00763 39.2088 9.18017 40.4099C10.3813 41.6683 12.2402 41.7254 13.5844 40.4385C15.5005 38.6368 17.3308 36.7493 19.1611 34.8904C20.6768 33.3746 22.164 31.8303 23.7083 30.286Z" fill="url(#paint0_linear_294_745)"/>
</g>
<defs>
<linearGradient id="paint0_linear_294_745" x1="26.8749" y1="63.3421" x2="30.0354" y2="12.2488" gradientUnits="userSpaceOnUse">
<stop stop-color="#1D62C8"/>
<stop offset="1" stop-color="#80D5FF"/>
</linearGradient>
<clipPath id="clip0_294_745">
<rect width="60" height="60" fill="white"/>
</clipPath>
</defs>
</svg>
