<svg width="26" height="30" viewBox="0 0 26 30" fill="none" xmlns="http://www.w3.org/2000/svg">
<g id="tt 1" clip-path="url(#clip0_274_657)">
<path id="Vector" d="M9.08463 29.6261C8.42961 29.5297 7.76457 29.4764 7.12113 29.3291C3.47881 28.4958 0.635785 25.3257 0.181363 21.6224C-0.425046 16.6847 2.91406 12.2285 7.83863 11.4107C8.81769 11.2487 10.0984 11.2525 10.7218 11.4238V16.2704C10.4764 16.2234 10.2458 16.1686 10.0128 16.1354C7.26154 15.7443 4.8984 17.8605 4.98866 20.6326C5.05964 22.8214 6.81947 24.6267 9.06071 24.8111C11.1993 24.987 13.2462 23.4301 13.6381 21.31C13.7014 20.9397 13.7308 20.5645 13.7261 20.189C13.7348 13.6054 13.7399 7.01974 13.7415 0.432047C13.7415 0.287774 13.7546 0.144273 13.7623 0H18.5557C18.6607 4.10214 21.7081 7.23911 25.7678 7.41193C26.017 7.42273 26.044 7.52148 26.0433 7.72593C26.0371 9.12392 26.0433 10.5219 26.0433 11.9199V12.2285C23.262 12.2169 20.8047 11.3613 18.5634 9.69792V10.0559C18.5732 13.4408 18.582 16.8254 18.5897 20.2098C18.5895 20.6819 18.5614 21.1536 18.5056 21.6224C18.0519 25.4144 15.0631 28.6432 11.3158 29.3893C10.7712 29.4973 10.2157 29.5482 9.66481 29.6253L9.08463 29.6261Z" fill="#1D62C8"/>
</g>
<defs>
<clipPath id="clip0_274_657">
<rect width="26" height="29.6261" fill="white"/>
</clipPath>
</defs>
</svg>
