<svg width="30" height="30" viewBox="0 0 30 30" fill="none" xmlns="http://www.w3.org/2000/svg">
<g id="tw 1" clip-path="url(#clip0_274_669)">
<path id="Vector" d="M0.0153428 30.0101C0.709032 29.1924 1.39848 28.371 2.09772 27.5582C5.14451 24.0131 8.1938 20.4691 11.2456 16.9263C11.3089 16.8529 11.368 16.7758 11.4415 16.687C7.63362 11.1471 3.8198 5.59803 0 0.0398143C0.109684 0.0323062 0.181502 0.0215336 0.253645 0.0215336C2.99576 0.0215336 5.74015 0.0215336 8.48357 0.0153312C8.67944 0.0153312 8.77737 0.0878013 8.87987 0.237965C11.2851 3.74613 13.6934 7.25222 16.1047 10.7562C16.1644 10.8428 16.2271 10.927 16.3074 11.0389C16.8072 10.4595 17.29 9.9013 17.7712 9.34145C20.3622 6.33035 22.9513 3.31751 25.5382 0.302926C25.7207 0.0881277 25.9058 0.00717014 26.1836 0.0143519C26.892 0.0332855 27.601 0.0205543 28.3789 0.0205543L17.4584 12.7146C17.5211 12.8099 17.5724 12.8915 17.6269 12.9708C21.4665 18.5593 25.306 24.1478 29.1454 29.7362C29.2054 29.8231 29.2531 29.9184 29.3066 30.0101H20.5779C20.5436 29.9517 20.5126 29.8906 20.4748 29.8351C17.8959 26.0808 15.317 22.3268 12.7381 18.5729C12.6956 18.5115 12.6434 18.457 12.585 18.3862C12.4939 18.489 12.4159 18.5755 12.3398 18.6636C10.2573 21.0826 8.17584 23.5011 6.09532 25.9191C4.92579 27.2813 3.75832 28.6449 2.59293 30.0101H0.0153428ZM3.51839 1.96419C3.60588 2.09868 3.65615 2.18095 3.71132 2.25995C9.69151 10.8127 15.6704 19.3665 21.648 27.9212C21.7688 28.0939 21.8961 28.153 22.105 28.1497C23.2175 28.1396 24.3304 28.1455 25.4429 28.1445C25.5359 28.1445 25.6286 28.135 25.7716 28.1275C25.6737 27.9816 25.5989 27.8713 25.5229 27.7629C19.6541 19.3703 13.7897 10.9749 7.9296 2.57659C7.61099 2.11958 7.30055 1.92012 6.73319 1.94917C5.6827 2.00238 4.62895 1.96419 3.51839 1.96419Z" fill="#1D62C8"/>
</g>
<defs>
<clipPath id="clip0_274_669">
<rect width="29.3145" height="30" fill="white"/>
</clipPath>
</defs>
</svg>
